<svg xmlns="http://www.w3.org/2000/svg" viewBox="0 0 16 16"><path fill="#C90" d="M5.334 8a2.667 2.667 0 1 1 5.333 0 2.667 2.667 0 0 1-5.333 0M3.892 8a4.108 4.108 0 1 0 8.216 0 4.108 4.108 0 0 0-8.216 0m7.419-4.27a.96.96 0 1 0 1.92 0 .96.96 0 0 0-1.92 0M4.768 14.511c-.78-.035-1.204-.165-1.486-.275a2.488 2.488 0 0 1-.92-.598 2.473 2.473 0 0 1-.598-.92c-.11-.282-.24-.706-.276-1.486-.039-.843-.046-1.096-.046-3.233 0-2.136.008-2.389.046-3.233.036-.78.166-1.203.276-1.485.145-.374.318-.64.598-.92.28-.28.546-.454.92-.6.282-.109.706-.239 1.486-.274C5.61 1.448 5.865 1.44 8 1.44c2.137 0 2.39.008 3.233.047.78.035 1.204.166 1.486.275.374.145.64.319.92.598.28.28.453.547.599.92.11.282.24.706.275 1.486.039.844.047 1.097.047 3.233s-.008 2.39-.047 3.233c-.036.78-.166 1.204-.275 1.486a2.48 2.48 0 0 1-.599.92c-.28.28-.546.453-.92.598-.282.11-.706.24-1.486.275-.843.04-1.096.047-3.233.047-2.135 0-2.389-.008-3.232-.047M4.702.048C3.85.088 3.269.222 2.76.42a3.926 3.926 0 0 0-1.417.923c-.445.444-.719.89-.923 1.417-.198.509-.333 1.09-.372 1.942C.01 5.555 0 5.828 0 8s.009 2.446.048 3.299c.04.851.174 1.433.372 1.942.204.526.478.972.923 1.417.444.444.89.718 1.417.923.51.197 1.09.332 1.942.371.854.039 1.126.049 3.298.049 2.174 0 2.446-.01 3.299-.049.851-.039 1.433-.174 1.942-.371a3.934 3.934 0 0 0 1.417-.923c.444-.445.718-.891.923-1.417.197-.509.333-1.09.371-1.942.039-.854.048-1.126.048-3.299s-.009-2.445-.048-3.298c-.039-.852-.174-1.433-.371-1.942a3.934 3.934 0 0 0-.923-1.417A3.923 3.923 0 0 0 13.24.42C12.732.222 12.151.087 11.3.048 10.446.01 10.174 0 8.001 0S5.556.009 4.702.048"/></svg>