<svg xmlns="http://www.w3.org/2000/svg" width="160" height="95" viewBox="0 0 160 95.000002"><path d="M86.337 21.742c-.53.136-1.475.272-2.493.389-.038.107-.127.251-.164.313-.06.098-.253.546-.396.857-.123.272-.253.89-.285 1.045.239.038.416.087.451.155.108.21-.061.694-.114.792-.022.042-.095.07-.182.087.39.405 1.076 1.121 1.321 1.36.34.33 4.56 4.385 5.162 4.952.6.568 5.17 4.428 5.9 5.015.729.588 2.499 1.996 2.505 2.238.005.241-2.081 1.064-3.333 1.727-1.25.663-4.5 1.812-5.93 2.108-1.43.295-4.16.818-6.359.924-1.691.08-3.377-.246-4.064-.4.105.995.283 2.247.355 2.69.099.596.472 1.87.432 1.964.135.054 1.108 1.208 1.667 1.755.558.546 2.123 2.242 2.555 2.896.433.653.461 3.523.59 4.409.131.885 1.309 5.233 1.734 6.24.424 1.008 3.85 5.232 5.492 7.258 1.642 2.025 6.688 6.936 7.225 7.387.535.45 3.509 2.8 4.222 3.313.713.514 2.711 1.665 3.283 2.17.573.504.505.9.314 1.136-.191.237-2.831 1.564-3.38 1.853-.548.29-4.216 1.886-5.123 2.312-.908.427-4.895 1.862-6.478 2.167-1.575.304-4.847-.15-4.88-.155.933 1.251 2.25 2.922 2.25 2.922s-4.092 1.387-5.77 1.379c-1.678-.008-8.258-.353-9.657-.868-1.4-.515-4.793-1.811-5.318-2.095-.525-.284-2.419-1.3-2.683-1.613-.265-.312 2.258-4.89 2.518-6.804.26-1.914.91-10.99.976-12.254.065-1.263.502-10.223.585-11.106.083-.884 1.036-5.813 1.147-6.295.11-.48.903-3.886.959-3.978-.224-.01-.725-1.17-.824-1.61-.1-.44-.698-5.034-.72-6.106-.024-1.073.218-7.155.237-7.524l.045-.958c-.31.546-.864 1.527-1.036 1.858-.24.468-1.355 2.457-1.553 2.757-.197.3-.699 1.192-1.04 1.327-.34.135-2.003-.554-2.62-.838-.618-.285-2.472-1.634-2.878-2.048-.405-.415-2.289-2.213-2.685-2.77-.38-.533-1.767-2.449-2.1-2.975-2.734-.023-4.858-.088-5.087-.1-.254-.013-1.11-.18-1.11-.45s2.005.065 3.912.052c1.908-.013 5.547.013 6.19.013.642 0 4.03-.335 3.97-.078 0 0-.252.425-.953.45-.644.024-2.559.116-5.303.12.092.007.092.103.222.287.142.2 1.132 1.47 1.489 1.904.357.432 2.407 2.453 3.108 2.977.701.524 2.635 1.52 2.815 1.427.18-.094 1-1.355 1.192-1.67.19-.316.883-1.404 1.05-1.689.132-.225 1.876-2.985 2.59-4.114.034-.313.133-.672.462-.912.507-.37 3.27-1.799 3.98-2.185a80.82 80.82 0 0 1 2.8-1.394 44.359 44.359 0 0 1 1.756-.701c-.099-.068-.151-.162-.1-.286.09-.217.146-.542.355-.627.07-.027.27-.032.517-.023.03-.135.215-.697.3-1.007.05-.182.078-.454.113-.659l-.155.01c-1.46.084-2.257-.34-2.82-.72-.564-.38-.932-1.139-.723-2.101.21-.962.302-1.264.475-1.528.173-.265-1.377-.349-1.642-.395-.266-.045-.531-.272-.183-.482.185-.11.915-.325 1.616-.617a3.181 3.181 0 0 0 1.161-.804c.305-.355.97-1.426 1.857-2.177.621-2.191 3.93-10.573 4.122-11.11C84.75.906 97.4 5.144 97.177 5.433c-4.688 6.117-6.311 8.787-6.977 9.858.016.07.026.14.033.211l.006.092.001-.035c.15-.037.104-.015.32-.02.216-.004.522.006.633.058.068.031.082.254.085.482.16-.065.457-.183.765-.258.415-.102 1.213-.017 1.851.288.639.306 1.227 1.388 1.468 2.064.24.677.018 2.316-.392 2.922-.41.607-1.108.943-1.443 1.571-.335.628-.479 1.036-.238 1.92.24.882 2.808.917 1.77 1.087-1.037.17-3.017-.774-3.39-1.214-.371-.44-.583-1.572-.175-2.208.408-.636.862-1.502 1.284-2.604.422-1.103-.22-2.286-.591-2.535-.277-.186-.73-.313-.944-.365-.059.283-.19.619-.346.611-.18-.008-.606-.042-.745-.085-.109.773-.303 1.54-.55 2.03-.452.891-1.494 1.906-3.265 2.44zM72.583 31.76l.005-.003.002-.002c.166-.1 2.906-1.77 3.635-2.132l.016-.008.423-.21.572-.282c1.068-.527 2.46-1.213 2.54-1.251l.078-.037a2.62 2.62 0 0 0-.075-.087c-.051-.056-.11-.12-.152-.18l-.023-.033c-.095-.132-.372-.513-.448-.928a1.121 1.121 0 0 1-.016-.2c.004-.44.233-.92.314-1.09.016-.034.034-.115.123-.096.038.009.141.01.126.064v.001a.183.183 0 0 1-.014.035l-.006.022-.024.086a4.192 4.192 0 0 0-.106.689l-.001.03-.001.1v.001c0 .032.003.065.005.098.013.158.044.299.075.386l.001.005.031.077.045.092c.083.162.205.356.333.521l.012.016c.072.09.14.166.195.227.115.128.191.212.087.262l-.005.002-.319.162c-.678.347-2.215 1.132-2.605 1.314l-.005.002-.264.128-.351.176c-.663.334-1.52.78-1.69.869l-.002.001c-.205.108-1.459.791-2.06 1.119l-.303.165-.15-.112zm.115-2.644c-.335.17-.48.415-.325.548.155.134.552.105.886-.064.334-.17.48-.414.325-.548-.155-.133-.551-.105-.886.064zm3.734-2.012c-.334.169-.48.414-.325.548.156.133.553.105.887-.064.334-.17.48-.415.325-.548-.156-.134-.552-.105-.887.064zm-18.639 4.002h-.005.006zm25.724-.714c-.364.398-1.887 2.114-3.029 4.283-1.306 2.48-1.775 3.326-1.948 4.323-.173.998-.304 2.483-.259 3.412.007.122.017.262.03.417l.68-.036c.263-.012 2.006-.168 2.412-.199.406-.031 2.831-.474 3.416-.57.586-.093 2.518-.612 4.425-1.195 1.907-.583 4.607-2.065 4.607-2.065s-2.889-2.1-3.455-2.528c-.565-.427-2.804-2.168-3.586-2.766-.664-.506-2.691-2.484-3.293-3.076zM86.322 3.87c-1.475.223-3.83 10.388-1.99 5.946 1.839-4.443 1.99-5.946 1.99-5.946zm4.414.758c-1.505.102-5.737 9.998-3.084 5.74 2.654-4.26 3.084-5.74 3.084-5.74zm3.678 1.338c-1.514.013-7.06 9.623-3.844 5.536 3.216-4.087 3.844-5.536 3.844-5.536" fill-rule="evenodd" fill="#fff"/></svg>