<?xml version="1.0" encoding="UTF-8" standalone="no"?>
<!DOCTYPE svg PUBLIC "-//W3C//DTD SVG 1.1//EN" "http://www.w3.org/Graphics/SVG/1.1/DTD/svg11.dtd">
<svg width="100%" height="100%" viewBox="0 0 1289 1393" version="1.1" xmlns="http://www.w3.org/2000/svg" xmlns:xlink="http://www.w3.org/1999/xlink" xml:space="preserve" xmlns:serif="http://www.serif.com/" style="fill-rule:evenodd;clip-rule:evenodd;stroke-linejoin:round;stroke-miterlimit:2;">
    <g transform="matrix(1.83092,0,0,1.83092,-527.19,-643.713)">
        <g transform="matrix(0.988018,0,0,0.988327,16.2331,4.36053)">
            <circle cx="631.25" cy="731.25" r="356.25" style="fill:rgb(235,235,235);"/>
        </g>
        <g id="Layer-1" serif:id="Layer 1" transform="matrix(4.16667,0,0,4.16667,0,0)">
            <g transform="matrix(1,0,0,1,153.58,91.516)">
                <path d="M0,165.913C-45.742,165.913 -82.955,128.7 -82.955,82.958C-82.955,37.215 -45.742,0 0,0C45.742,0 82.957,37.215 82.957,82.958C82.957,128.7 45.742,165.913 0,165.913M0,-1.52C-46.579,-1.52 -84.475,36.376 -84.475,82.958C-84.475,129.537 -46.579,167.433 0,167.433C46.581,167.433 84.476,129.537 84.476,82.958C84.476,36.376 46.581,-1.52 0,-1.52" style="fill:rgb(184,90,29);fill-rule:nonzero;"/>
            </g>
            <g transform="matrix(1,0,0,1,75.3994,152.693)">
                <path d="M0,6.787C0.389,6.808 0.68,6.82 0.944,6.896C0.998,6.909 1.049,6.865 1.036,6.807C1.014,6.547 1.02,6.337 1.098,5.949C1.146,5.679 1.23,5.319 1.365,4.816L1.412,4.617L8.363,6.254L8.989,6.753C9.026,6.776 9.086,6.762 9.099,6.708L9.623,4.484C9.632,4.444 9.613,4.412 9.579,4.432L9.086,4.556L1.829,2.846L1.873,2.659C1.98,2.137 2.062,1.79 2.14,1.527C2.243,1.144 2.33,0.954 2.47,0.72C2.508,0.673 2.479,0.623 2.425,0.611C2.155,0.561 1.891,0.429 1.532,0.288C0.851,0.015 0.926,-0.122 0.837,0.012L-0.744,6.724C-0.724,6.883 -0.727,6.713 0,6.787" style="fill:rgb(0,37,97);fill-rule:nonzero;"/>
            </g>
            <g transform="matrix(1,0,0,1,81.7041,144.638)">
                <path d="M0,-2.729C0.451,-3.727 1.742,-3.727 3.663,-2.858C5.557,-2 6.441,-1.03 5.96,0.029C5.467,1.114 4.099,1.02 2.279,0.196C0.136,-0.774 -0.374,-1.905 0,-2.729M1.528,1.854C4.36,3.135 6.444,2.938 7.462,0.695C8.391,-1.362 7.492,-3.122 4.414,-4.516C1.434,-5.864 -0.632,-5.313 -1.514,-3.37C-2.479,-1.238 -1.398,0.527 1.528,1.854" style="fill:rgb(0,37,97);fill-rule:nonzero;"/>
            </g>
            <g transform="matrix(1,0,0,1,91.7026,132.626)">
                <path d="M0,-4.31C1.733,-3.066 0.012,-1.136 0.012,-1.136L-2.823,-3.169C-2.019,-4.292 -1.202,-5.172 0,-4.31M-4.518,-2.144L1.941,2.488L2.32,3.181C2.348,3.234 2.407,3.225 2.431,3.192L3.77,1.324C3.793,1.291 3.778,1.265 3.749,1.259L3.216,1.18C2.572,0.718 1.386,-0.117 1.174,-0.268C1.389,-0.568 1.601,-0.888 1.787,-1.242L3.958,-0.746C4.09,-0.719 4.301,-0.685 4.516,-0.632L4.509,-0.621L4.841,-0.264C4.865,-0.248 4.895,-0.244 4.909,-0.266L6.233,-2.111C6.257,-2.144 6.229,-2.199 6.18,-2.201L5.367,-2.263C4.978,-2.356 4.532,-2.438 4.125,-2.528C3.301,-2.717 2.756,-2.804 2.366,-2.866C2.52,-3.882 2.238,-4.944 1.037,-5.805C-1.386,-7.544 -2.983,-5.691 -4.283,-3.879L-5.344,-2.401C-5.375,-2.357 -5.346,-2.303 -5.307,-2.289L-4.518,-2.144Z" style="fill:rgb(0,37,97);fill-rule:nonzero;"/>
            </g>
            <g transform="matrix(1,0,0,1,97.1479,118.129)">
                <path d="M0,1.539C0.037,1.579 0.104,1.571 0.126,1.514C0.249,1.285 0.368,1.112 0.647,0.83C0.834,0.631 1.103,0.376 1.49,0.028L1.638,-0.113L6.56,5.063L6.809,5.823C6.83,5.863 6.886,5.884 6.925,5.847L8.581,4.272C8.611,4.244 8.614,4.206 8.574,4.204L8.094,4.037L2.956,-1.367L3.096,-1.499C3.473,-1.877 3.731,-2.122 3.938,-2.3C4.235,-2.564 4.414,-2.675 4.657,-2.794C4.715,-2.813 4.716,-2.87 4.679,-2.91C4.48,-3.1 4.333,-3.355 4.108,-3.67C3.688,-4.272 3.826,-4.345 3.677,-4.281L-1.318,0.47C-1.389,0.614 -1.3,0.471 -0.73,0.931C-0.417,1.162 -0.18,1.331 0,1.539" style="fill:rgb(0,37,97);fill-rule:nonzero;"/>
            </g>
            <g transform="matrix(1,0,0,1,113.812,111.477)">
                <path d="M0,-0.315L-1.174,0.44L-2.676,-3.181L0,-0.315ZM-4.643,-3.379L-1.441,4.323L-1.439,5.185C-1.452,5.241 -1.399,5.272 -1.354,5.243L0.522,4.036C0.555,4.014 0.564,3.977 0.537,3.96L0.151,3.638L-0.608,1.801L1.003,0.764L2.361,2.216L2.481,2.708C2.486,2.74 2.523,2.747 2.559,2.725L4.443,1.51C4.491,1.48 4.483,1.419 4.437,1.399L3.645,1.049L-2.042,-5.052L-2.164,-5.545C-2.179,-5.567 -2.223,-5.587 -2.247,-5.572L-5.031,-3.779C-5.054,-3.765 -5.055,-3.715 -5.028,-3.7L-4.643,-3.379Z" style="fill:rgb(0,37,97);fill-rule:nonzero;"/>
            </g>
            <g transform="matrix(1,0,0,1,127.672,102.445)">
                <path d="M0,3.442C0.328,4.268 -0.351,4.597 -0.885,4.809C-2.041,5.27 -3.713,4.286 -3.903,4.362C-3.992,4.398 -3.97,4.491 -3.935,4.58C-3.924,4.605 -3.909,4.644 -3.9,4.669L-2.906,7.131C-2.891,7.169 -2.844,7.179 -2.796,7.148L-2.363,6.679C-2.363,6.679 -1.19,6.669 0.106,6.153C1.785,5.485 2.21,4.109 1.618,2.622C0.525,-0.124 -3.302,1.471 -3.893,-0.015C-4.141,-0.638 -3.642,-1.235 -2.994,-1.493C-2.434,-1.716 -1.594,-1.784 -1.064,-1.495C-1.029,-1.478 -0.981,-1.469 -0.944,-1.484C-0.879,-1.509 -0.834,-1.616 -0.899,-1.781L-1.652,-3.675C-1.673,-3.725 -1.722,-3.737 -1.766,-3.704L-2.2,-3.236C-2.627,-3.125 -3.179,-3.142 -3.954,-2.834C-4.844,-2.48 -6.379,-1.34 -5.575,0.683C-4.558,3.237 -0.719,1.637 0,3.442" style="fill:rgb(0,37,97);fill-rule:nonzero;"/>
            </g>
            <g transform="matrix(1,0,0,1,151.51,99.1282)">
                <path d="M0,-0.125C0.101,2.048 -0.674,3.071 -2.492,3.154L-2.786,-3.202C-0.981,-3.285 -0.101,-2.313 0,-0.125M-4.274,4.016L-4.57,4.741C-4.593,4.796 -4.565,4.837 -4.51,4.834L-4.237,4.822C-4.224,4.821 -3.663,4.796 -3.335,4.78L-3.104,4.77C0.437,4.606 1.966,3.016 1.812,-0.332C1.662,-3.612 0.05,-4.962 -3.502,-4.799L-3.776,-4.787L-4.883,-4.735C-4.911,-4.734 -4.935,-4.691 -4.92,-4.665L-4.653,-4.197L-4.274,4.016Z" style="fill:rgb(0,37,97);fill-rule:nonzero;"/>
            </g>
            <g transform="matrix(1,0,0,1,162.942,99.8669)">
                <path d="M0,-0.476C0.343,-2.805 1.291,-3.606 2.185,-3.474C3.268,-3.314 3.623,-2.072 3.315,0.012C3.013,2.067 2.323,3.185 1.172,3.016C-0.006,2.842 -0.291,1.499 0,-0.476M0.945,4.641C3.179,4.971 4.623,3.62 5.117,0.278C5.594,-2.957 4.496,-4.793 2.383,-5.105C0.068,-5.447 -1.331,-3.922 -1.8,-0.742C-2.254,2.33 -1.492,4.282 0.945,4.641" style="fill:rgb(0,37,97);fill-rule:nonzero;"/>
            </g>
            <g transform="matrix(1,0,0,1,185.775,104.501)">
                <path d="M0,6.942C0.035,6.961 0.061,6.943 0.062,6.912L0.071,6.405L2.299,2.275C2.375,2.564 2.3,5.586 2.361,5.618C2.385,5.63 2.408,5.643 2.42,5.651L2.492,5.689C2.554,5.722 5.037,3.998 5.32,3.904L3.106,8.01L2.662,8.315C2.637,8.334 2.649,8.37 2.685,8.39L4.697,9.474C4.745,9.501 4.795,9.465 4.802,9.421L4.845,8.621L8.74,1.396L9.185,1.09C9.209,1.072 9.204,1.023 9.181,1.011L7.362,0.03C7.325,0.011 7.252,0.033 7.244,0.075L7.041,0.712L6.905,0.964L3.913,2.881L3.875,-0.652L4.019,-0.918L4.438,-1.437C4.47,-1.467 4.448,-1.541 4.411,-1.56L2.592,-2.54C2.557,-2.559 2.524,-2.53 2.524,-2.5L2.514,-1.961L-1.382,5.265L-2.026,5.74C-2.057,5.771 -2.06,5.832 -2.023,5.851L0,6.942Z" style="fill:rgb(0,37,97);fill-rule:nonzero;"/>
            </g>
            <g transform="matrix(1,0,0,1,198.914,111.909)">
                <path d="M0,8.313C1.155,9.279 3.008,9.601 4.544,7.765L5.626,6.476L8.296,3.286L8.793,3.079C8.822,3.065 8.817,3.028 8.786,3.001L7.035,1.534C6.993,1.5 6.946,1.511 6.931,1.553L6.726,2.328L4.233,5.308L3.785,5.842C2.94,6.848 2.011,7.872 1.046,7.065C0.08,6.256 0.937,5.171 1.781,4.165L2.229,3.629L4.74,0.629L5.441,0.305C5.488,0.292 5.482,0.233 5.451,0.208L3.689,-1.27C3.667,-1.288 3.63,-1.283 3.621,-1.252L3.504,-0.729L1.158,2.072L-0.258,3.742C-1.796,5.578 -1.217,7.293 0,8.313" style="fill:rgb(0,37,97);fill-rule:nonzero;"/>
            </g>
            <g transform="matrix(1,0,0,1,206.638,126.907)">
                <path d="M0,0.516C-0.048,0.522 -0.065,0.588 -0.039,0.62L1.402,2.41C1.42,2.432 1.457,2.436 1.472,2.407L1.688,1.914L5.939,-1.51L4.675,2.742L3.27,3.876L2.742,3.984C2.71,3.992 2.707,4.03 2.725,4.051L4.167,5.841C4.192,5.873 4.261,5.87 4.275,5.823L4.612,5.128L10.813,0.133L11.594,-0.054C11.632,-0.069 11.659,-0.126 11.624,-0.169L10.182,-1.958C10.165,-1.981 10.116,-1.975 10.104,-1.948L9.884,-1.455L6.763,1.06L8.017,-3.183L8.091,-3.245L8.872,-3.432C8.91,-3.447 8.937,-3.504 8.903,-3.545L7.46,-5.336C7.444,-5.357 7.394,-5.353 7.382,-5.326L7.162,-4.833L0.751,0.335L0,0.516Z" style="fill:rgb(0,37,97);fill-rule:nonzero;"/>
            </g>
            <g transform="matrix(1,0,0,1,222.936,141.421)">
                <path d="M0,-4.357C0.837,-2.755 0.328,-1.547 -1.612,-0.532C-3.538,0.477 -4.793,0.206 -5.637,-1.407L0,-4.357ZM-7.954,-2.619C-8.014,-2.616 -8.038,-2.575 -8.013,-2.524L-7.887,-2.282C-7.881,-2.27 -7.62,-1.773 -7.468,-1.482L-7.36,-1.277C-5.717,1.863 -3.628,2.578 -0.659,1.023C2.25,-0.5 2.793,-2.53 1.144,-5.681L1.018,-5.924L0.503,-6.905C0.491,-6.929 0.442,-6.935 0.424,-6.91L0.113,-6.469L-7.171,-2.656L-7.954,-2.619Z" style="fill:rgb(0,37,97);fill-rule:nonzero;"/>
            </g>
            <g transform="matrix(1,0,0,1,225.628,154.83)">
                <path d="M0,-3.261C2.256,-3.927 3.381,-3.404 3.636,-2.536C3.945,-1.489 2.968,-0.643 0.948,-0.046C-1.046,0.542 -2.35,0.384 -2.677,-0.73C-3.016,-1.872 -1.917,-2.696 0,-3.261M-4.249,-0.253C-3.609,1.913 -1.778,2.656 1.463,1.699C4.598,0.773 5.803,-0.996 5.2,-3.041C4.537,-5.285 2.567,-5.917 -0.517,-5.006C-3.495,-4.128 -4.947,-2.615 -4.249,-0.253" style="fill:rgb(0,37,97);fill-rule:nonzero;"/>
            </g>
            <g transform="matrix(1,0,0,1,231.762,196.252)">
                <path d="M0,-6.787C-0.389,-6.808 -0.68,-6.821 -0.945,-6.897C-0.999,-6.909 -1.049,-6.866 -1.036,-6.807C-1.014,-6.547 -1.02,-6.337 -1.098,-5.949C-1.147,-5.68 -1.232,-5.319 -1.364,-4.816L-1.412,-4.617L-8.363,-6.254L-8.989,-6.753C-9.026,-6.775 -9.086,-6.762 -9.099,-6.708L-9.623,-4.485C-9.632,-4.445 -9.613,-4.412 -9.579,-4.432L-9.086,-4.555L-1.829,-2.845L-1.873,-2.66C-1.981,-2.137 -2.063,-1.79 -2.139,-1.527C-2.244,-1.144 -2.33,-0.954 -2.47,-0.72C-2.508,-0.672 -2.479,-0.623 -2.425,-0.61C-2.155,-0.561 -1.892,-0.429 -1.532,-0.288C-0.851,-0.015 -0.925,0.122 -0.837,-0.012L0.744,-6.723C0.724,-6.882 0.727,-6.714 0,-6.787" style="fill:rgb(0,37,97);fill-rule:nonzero;"/>
            </g>
            <g transform="matrix(1,0,0,1,225.46,204.308)">
                <path d="M0,2.727C-0.451,3.725 -1.744,3.725 -3.663,2.855C-5.557,1.998 -6.439,1.028 -5.96,-0.032C-5.469,-1.117 -4.101,-1.022 -2.279,-0.196C-0.138,0.774 0.373,1.905 0,2.727M-1.528,-1.856C-4.359,-3.136 -6.445,-2.939 -7.46,-0.695C-8.393,1.36 -7.492,3.121 -4.412,4.514C-1.435,5.863 0.634,5.312 1.514,3.369C2.479,1.236 1.4,-0.529 -1.528,-1.856" style="fill:rgb(0,37,97);fill-rule:nonzero;"/>
            </g>
            <g transform="matrix(1,0,0,1,215.459,216.317)">
                <path d="M0,4.313C-1.733,3.069 -0.012,1.139 -0.012,1.139L2.824,3.173C2.019,4.295 1.202,5.174 0,4.313M4.518,2.146L-1.941,-2.487L-2.318,-3.179C-2.348,-3.232 -2.406,-3.223 -2.43,-3.191L-3.77,-1.322C-3.793,-1.288 -3.778,-1.261 -3.749,-1.257L-3.216,-1.178C-2.572,-0.715 -1.386,0.119 -1.172,0.271C-1.389,0.57 -1.6,0.891 -1.787,1.244L-3.958,0.748C-4.09,0.722 -4.301,0.689 -4.515,0.635L-4.509,0.624L-4.841,0.267C-4.863,0.25 -4.895,0.245 -4.909,0.267L-6.233,2.114C-6.257,2.146 -6.229,2.2 -6.18,2.203L-5.365,2.265C-4.978,2.357 -4.532,2.441 -4.126,2.529C-3.301,2.719 -2.756,2.805 -2.364,2.868C-2.52,3.886 -2.238,4.945 -1.036,5.808C1.388,7.545 2.983,5.693 4.283,3.883L5.344,2.403C5.375,2.358 5.347,2.304 5.307,2.292L4.518,2.146Z" style="fill:rgb(0,37,97);fill-rule:nonzero;"/>
            </g>
            <g transform="matrix(1,0,0,1,210.014,230.816)">
                <path d="M0,-1.541C-0.037,-1.581 -0.105,-1.572 -0.126,-1.516C-0.248,-1.287 -0.368,-1.115 -0.646,-0.832C-0.835,-0.633 -1.103,-0.379 -1.49,-0.03L-1.638,0.111L-6.558,-5.066L-6.811,-5.826C-6.828,-5.864 -6.888,-5.885 -6.926,-5.848L-8.583,-4.273C-8.612,-4.245 -8.612,-4.208 -8.574,-4.205L-8.094,-4.039L-2.958,1.365L-3.096,1.497C-3.471,1.874 -3.729,2.121 -3.938,2.298C-4.234,2.563 -4.412,2.672 -4.659,2.794C-4.715,2.812 -4.718,2.868 -4.679,2.909C-4.48,3.097 -4.332,3.352 -4.109,3.668C-3.688,4.27 -3.826,4.344 -3.679,4.278L1.318,-0.472C1.389,-0.616 1.299,-0.472 0.73,-0.933C0.417,-1.163 0.18,-1.333 0,-1.541" style="fill:rgb(0,37,97);fill-rule:nonzero;"/>
            </g>
            <g transform="matrix(1,0,0,1,193.349,237.47)">
                <path d="M0,0.313L1.174,-0.441L2.677,3.181L0,0.313ZM4.642,3.379L1.441,-4.323L1.439,-5.184C1.451,-5.242 1.398,-5.273 1.354,-5.243L-0.522,-4.035C-0.557,-4.015 -0.564,-3.976 -0.539,-3.961L-0.151,-3.639L0.608,-1.8L-1.003,-0.764L-2.361,-2.216L-2.483,-2.708C-2.486,-2.74 -2.523,-2.747 -2.559,-2.725L-4.445,-1.509C-4.491,-1.479 -4.485,-1.42 -4.437,-1.399L-3.645,-1.049L2.042,5.052L2.164,5.543C2.179,5.567 2.223,5.586 2.247,5.571L5.031,3.78C5.055,3.765 5.055,3.715 5.028,3.7L4.642,3.379Z" style="fill:rgb(0,37,97);fill-rule:nonzero;"/>
            </g>
            <g transform="matrix(1,0,0,1,179.49,246.497)">
                <path d="M0,-3.442C-0.328,-4.267 0.35,-4.597 0.885,-4.809C2.041,-5.269 3.713,-4.285 3.905,-4.362C3.994,-4.398 3.972,-4.49 3.936,-4.58C3.926,-4.606 3.909,-4.644 3.9,-4.668L2.906,-7.13C2.891,-7.167 2.844,-7.179 2.796,-7.147L2.364,-6.677C2.364,-6.677 1.19,-6.669 -0.107,-6.152C-1.784,-5.486 -2.208,-4.11 -1.618,-2.621C-0.525,0.124 3.302,-1.471 3.893,0.016C4.141,0.639 3.642,1.236 2.994,1.493C2.434,1.715 1.594,1.785 1.066,1.495C1.03,1.479 0.982,1.469 0.944,1.484C0.88,1.509 0.834,1.616 0.899,1.781L1.653,3.674C1.673,3.726 1.722,3.737 1.768,3.704L2.2,3.236C2.627,3.127 3.179,3.143 3.954,2.834C4.844,2.479 6.379,1.34 5.575,-0.682C4.558,-3.237 0.718,-1.636 0,-3.442" style="fill:rgb(0,37,97);fill-rule:nonzero;"/>
            </g>
            <g transform="matrix(1,0,0,1,155.653,249.816)">
                <path d="M0,0.126C-0.101,-2.047 0.674,-3.069 2.492,-3.154L2.786,3.204C0.981,3.287 0.101,2.314 0,0.126M4.274,-4.015L4.57,-4.74C4.593,-4.797 4.565,-4.837 4.51,-4.834L4.237,-4.822C4.224,-4.822 3.663,-4.795 3.335,-4.781L3.104,-4.77C-0.438,-4.607 -1.966,-3.016 -1.812,0.334C-1.661,3.612 -0.05,4.963 3.502,4.798L3.775,4.786L4.883,4.736C4.911,4.732 4.935,4.692 4.921,4.668L4.653,4.198L4.274,-4.015Z" style="fill:rgb(0,37,97);fill-rule:nonzero;"/>
            </g>
            <g transform="matrix(1,0,0,1,144.221,249.071)">
                <path d="M0,0.483C-0.344,2.81 -1.291,3.61 -2.185,3.478C-3.268,3.319 -3.625,2.077 -3.315,-0.007C-3.013,-2.064 -2.324,-3.18 -1.172,-3.009C0.004,-2.836 0.291,-1.494 0,0.483M-0.947,-4.638C-3.179,-4.967 -4.625,-3.616 -5.117,-0.272C-5.595,2.962 -4.496,4.797 -2.383,5.109C-0.07,5.45 1.33,3.929 1.799,0.749C2.253,-2.325 1.49,-4.277 -0.947,-4.638" style="fill:rgb(0,37,97);fill-rule:nonzero;"/>
            </g>
            <g transform="matrix(1,0,0,1,121.388,244.443)">
                <path d="M0,-6.944C-0.037,-6.964 -0.061,-6.947 -0.063,-6.914L-0.071,-6.407L-2.299,-2.277C-2.376,-2.566 -2.3,-5.588 -2.361,-5.62C-2.385,-5.632 -2.41,-5.646 -2.422,-5.653L-2.493,-5.692C-2.554,-5.724 -5.037,-4 -5.32,-3.906L-3.107,-8.011L-2.664,-8.317C-2.639,-8.336 -2.65,-8.372 -2.686,-8.391L-4.697,-9.476C-4.745,-9.501 -4.795,-9.465 -4.802,-9.423L-4.845,-8.624L-8.741,-1.397L-9.185,-1.092C-9.209,-1.076 -9.206,-1.026 -9.181,-1.013L-7.362,-0.032C-7.325,-0.013 -7.253,-0.035 -7.245,-0.077L-7.042,-0.714L-6.905,-0.966L-3.914,-2.883L-3.875,0.65L-4.019,0.916L-4.439,1.435C-4.47,1.465 -4.448,1.539 -4.412,1.558L-2.593,2.538C-2.557,2.557 -2.526,2.528 -2.524,2.498L-2.514,1.959L1.38,-5.267L2.026,-5.742C2.057,-5.772 2.059,-5.834 2.023,-5.853L0,-6.944Z" style="fill:rgb(0,37,97);fill-rule:nonzero;"/>
            </g>
            <g transform="matrix(1,0,0,1,108.249,237.035)">
                <path d="M0,-8.312C-1.155,-9.278 -3.008,-9.6 -4.544,-7.764L-5.626,-6.475L-8.296,-3.285L-8.793,-3.077C-8.822,-3.065 -8.817,-3.027 -8.786,-3L-7.035,-1.532C-6.993,-1.498 -6.946,-1.51 -6.931,-1.552L-6.726,-2.326L-4.231,-5.307L-3.783,-5.841C-2.938,-6.847 -2.011,-7.871 -1.046,-7.063C-0.08,-6.255 -0.935,-5.17 -1.779,-4.164L-2.228,-3.628L-4.74,-0.628L-5.441,-0.303C-5.488,-0.289 -5.482,-0.232 -5.45,-0.207L-3.688,1.271C-3.667,1.288 -3.63,1.283 -3.621,1.253L-3.504,0.731L-1.158,-2.071L0.258,-3.741C1.796,-5.577 1.217,-7.292 0,-8.312" style="fill:rgb(0,37,97);fill-rule:nonzero;"/>
            </g>
            <g transform="matrix(1,0,0,1,100.525,222.035)">
                <path d="M0,-0.517C0.049,-0.523 0.065,-0.588 0.042,-0.621L-1.401,-2.411C-1.418,-2.432 -1.457,-2.436 -1.469,-2.408L-1.688,-1.915L-5.939,1.509L-4.675,-2.744L-3.268,-3.877L-2.739,-3.984C-2.71,-3.992 -2.707,-4.03 -2.723,-4.052L-4.166,-5.842C-4.191,-5.873 -4.259,-5.871 -4.274,-5.823L-4.612,-5.13L-10.813,-0.134L-11.591,0.054C-11.632,0.069 -11.656,0.126 -11.624,0.169L-10.181,1.959C-10.163,1.979 -10.114,1.975 -10.101,1.946L-9.884,1.454L-6.761,-1.062L-8.017,3.181L-8.091,3.244L-8.87,3.431C-8.911,3.445 -8.937,3.502 -8.901,3.545L-7.459,5.335C-7.442,5.356 -7.394,5.351 -7.38,5.324L-7.162,4.832L-0.749,-0.336L0,-0.517Z" style="fill:rgb(0,37,97);fill-rule:nonzero;"/>
            </g>
            <g transform="matrix(1,0,0,1,84.2271,207.524)">
                <path d="M0,4.357C-0.837,2.756 -0.327,1.548 1.612,0.533C3.54,-0.476 4.793,-0.206 5.638,1.407L0,4.357ZM7.955,2.618C8.014,2.616 8.04,2.573 8.014,2.524L7.887,2.282C7.88,2.271 7.621,1.774 7.468,1.482L7.361,1.276C5.717,-1.863 3.63,-2.578 0.659,-1.023C-2.25,0.5 -2.793,2.53 -1.143,5.681L-1.017,5.924L-0.501,6.905C-0.49,6.929 -0.441,6.935 -0.423,6.911L-0.113,6.471L7.171,2.656L7.955,2.618Z" style="fill:rgb(0,37,97);fill-rule:nonzero;"/>
            </g>
            <g transform="matrix(1,0,0,1,81.5347,194.113)">
                <path d="M0,3.262C-2.256,3.929 -3.381,3.405 -3.636,2.538C-3.945,1.489 -2.968,0.644 -0.947,0.048C1.048,-0.542 2.35,-0.384 2.677,0.732C3.016,1.873 1.917,2.697 0,3.262M4.25,0.254C3.609,-1.91 1.778,-2.655 -1.463,-1.699C-4.598,-0.773 -5.803,0.996 -5.2,3.043C-4.537,5.286 -2.567,5.917 0.517,5.008C3.497,4.129 4.947,2.616 4.25,0.254" style="fill:rgb(0,37,97);fill-rule:nonzero;"/>
            </g>
            <g transform="matrix(-0.99991,-0.0134116,-0.0134116,0.99991,84.5186,174.783)">
                <path d="M-0.003,-1.342C-0.003,-0.997 0.014,-0.656 0.009,-0.31C0.008,-0.206 -0.001,-0.104 -0.003,0C-0,-0.346 -0.016,-0.689 -0.021,-1.034C-0.016,-1.137 -0.007,-1.239 -0.003,-1.342" style="fill:rgb(184,90,29);fill-rule:nonzero;"/>
            </g>
            <g transform="matrix(1,0,0,1,86.4326,114.283)">
                <path d="M0,47.729C5.123,20.062 26.961,-1.796 54.618,-6.947C58.669,-8.192 62.891,-8.87 67.236,-8.877C67.207,-8.877 67.178,-8.879 67.149,-8.879C30.266,-8.879 0.043,20.182 -1.827,56.608C-1.742,55.697 -1.579,54.797 -1.38,53.903C-1.061,51.807 -0.6,49.747 0,47.729" style="fill:rgb(184,90,29);fill-rule:nonzero;"/>
            </g>
            <g transform="matrix(1,0,0,1,87.1055,230.794)">
                <path d="M0,-40.662C-1.423,-44.744 -2.291,-49.009 -2.518,-53.409C-0.985,-16.672 29.369,12.747 66.476,12.747C66.505,12.747 66.534,12.744 66.563,12.744C62.218,12.737 57.996,12.059 53.945,10.815C27.364,5.864 6.158,-14.52 0,-40.662" style="fill:rgb(184,90,29);fill-rule:nonzero;"/>
            </g>
            <g transform="matrix(0.99991,-0.0134116,-0.0134116,-0.99991,222.649,174.782)">
                <path d="M-0.009,-0C-0.008,0.104 0.002,0.206 0.003,0.31C0.008,0.656 -0.009,0.997 -0.009,1.342C-0.013,1.239 -0.022,1.137 -0.027,1.034C-0.022,0.689 -0.006,0.346 -0.009,-0" style="fill:rgb(184,90,29);fill-rule:nonzero;"/>
            </g>
            <g transform="matrix(1,0,0,1,166.906,179.416)">
                <path d="M0,62.051C-3.57,63.192 -7.28,63.873 -11.089,64.058C-11.255,64.069 -11.421,64.073 -11.587,64.081C24.724,63.177 54.159,34.13 55.668,-2.03C55.441,2.369 54.574,6.635 53.15,10.717C47.053,36.599 26.21,56.846 0,62.051" style="fill:rgb(184,90,29);fill-rule:nonzero;"/>
            </g>
            <g transform="matrix(1,0,0,1,166.906,168.862)">
                <path d="M0,-61.383C27.281,-55.966 48.749,-34.252 53.823,-6.85C54.423,-4.832 54.884,-2.772 55.204,-0.675C55.402,0.219 55.565,1.118 55.65,2.03C53.81,-33.821 24.501,-62.515 -11.587,-63.413C-11.421,-63.406 -11.255,-63.402 -11.089,-63.39C-7.28,-63.206 -3.57,-62.525 0,-61.383" style="fill:rgb(184,90,29);fill-rule:nonzero;"/>
            </g>
            <g transform="matrix(1,0,0,1,85.3105,173.216)">
                <path d="M0,-0.212C0.005,-0.141 0.011,-0.07 0.02,0C0.023,-0.07 0.023,-0.141 0.026,-0.211C0.018,-0.212 0.008,-0.212 0,-0.212" style="fill:rgb(184,90,29);fill-rule:nonzero;"/>
            </g>
            <g transform="matrix(-0.326377,-0.94524,-0.94524,0.326377,167.588,227.531)">
                <path d="M-1.764,-2.846C-1.584,-1.412 -1.357,0.029 -1.096,1.472C-1.318,1.655 -1.549,1.84 -1.764,2.022C-2.101,0.202 -2.378,-1.611 -2.59,-3.417C-2.325,-3.222 -2.05,-3.032 -1.764,-2.846" style="fill:rgb(184,90,29);fill-rule:nonzero;"/>
            </g>
            <g transform="matrix(1,0,0,1,85.3613,171.399)">
                <path d="M0,0.846C0.018,0.562 0.055,0.283 0.078,0C0.009,0.28 -0.032,0.561 -0.053,0.845C-0.039,0.845 -0.016,0.846 0,0.846" style="fill:rgb(184,90,29);fill-rule:nonzero;"/>
            </g>
            <g transform="matrix(1,0,0,1,195.713,168.186)">
                <path d="M0,-37.309C0.309,-36.827 0.607,-36.333 0.906,-35.84C12.513,-28.233 20.957,-17.622 24.422,-5.493C25.316,-3.71 25.979,-1.876 26.396,0C26.077,-2.096 25.616,-4.156 25.016,-6.174C21.282,-18.734 12.279,-29.649 0,-37.309" style="fill:rgb(184,90,29);fill-rule:nonzero;"/>
            </g>
            <g transform="matrix(0.145502,0.989358,0.989358,-0.145502,158.629,224.569)">
                <path d="M5.583,-4.822C6.074,-1.162 6.321,2.461 6.341,6.028C6.087,6.172 5.844,6.319 5.583,6.464C5.581,2.793 5.337,-0.939 4.831,-4.711L5.583,-4.822Z" style="fill:rgb(184,90,29);fill-rule:nonzero;"/>
            </g>
            <g transform="matrix(1,0,0,1,116.449,130.514)">
                <path d="M0,-2.122C0.142,-2.322 0.296,-2.516 0.448,-2.71C-0.715,-2.119 -1.853,-1.499 -2.969,-0.854C-3.295,-0.375 -3.626,0.098 -3.943,0.588C-2.824,-0.092 -1.675,-0.742 -0.503,-1.367C-0.341,-1.621 -0.176,-1.873 0,-2.122" style="fill:rgb(184,90,29);fill-rule:nonzero;"/>
            </g>
            <g transform="matrix(0.378307,-0.92568,-0.92568,-0.378307,192.91,124.475)">
                <path d="M-4.585,-3.26C-4.043,0.465 -3.782,4.298 -3.826,8.206C-4.064,8.129 -4.324,8.06 -4.585,7.99C-4.548,3.643 -4.887,-0.613 -5.581,-4.72C-5.238,-4.237 -4.912,-3.748 -4.585,-3.26" style="fill:rgb(184,90,29);fill-rule:nonzero;"/>
            </g>
            <g transform="matrix(1,0,0,1,181.459,219.786)">
                <path d="M0,5.599C0.294,5.714 0.548,5.845 0.776,5.983C4.52,4.598 8.085,2.954 11.436,1.074C11.782,0.596 12.12,0.107 12.456,-0.384C8.542,1.931 4.312,3.912 -0.171,5.522C-0.114,5.546 -0.057,5.577 0,5.599" style="fill:rgb(184,90,29);fill-rule:nonzero;"/>
            </g>
            <g transform="matrix(-0.0118586,0.99993,0.99993,0.0118586,160.626,114.332)">
                <path d="M5.772,-5.887C5.775,-1.933 6.051,1.942 6.577,5.713C6.307,5.613 6.036,5.514 5.772,5.413C5.275,1.732 5.015,-2.044 5.012,-5.896L5.772,-5.887Z" style="fill:rgb(184,90,29);fill-rule:nonzero;"/>
            </g>
            <g transform="matrix(0.341151,-0.940009,-0.940009,-0.341151,127.452,217.417)">
                <path d="M-7.844,-5.269C-8.176,0.704 -7.811,6.536 -6.813,12.094C-7.165,11.598 -7.507,11.099 -7.844,10.598C-8.683,5.207 -8.929,-0.425 -8.548,-6.172C-8.321,-5.871 -8.079,-5.57 -7.844,-5.269" style="fill:rgb(184,90,29);fill-rule:nonzero;"/>
            </g>
            <g transform="matrix(1,0,0,1,153.911,119.994)">
                <path d="M0,0.024L0,-0.736C-0.11,-0.736 -0.219,-0.743 -0.33,-0.743C-4.036,-0.743 -7.673,-0.498 -11.223,-0.042C-11.321,0.221 -11.417,0.497 -11.514,0.767C-7.872,0.282 -4.139,0.017 -0.33,0.017C-0.219,0.017 -0.11,0.024 0,0.024" style="fill:rgb(184,90,29);fill-rule:nonzero;"/>
            </g>
            <g transform="matrix(0.142826,-0.989748,-0.989748,-0.142826,173.241,116.82)">
                <path d="M-5.111,-4.289C-4.648,-0.938 -4.392,2.495 -4.352,5.988C-4.606,5.851 -4.851,5.713 -5.111,5.577C-5.163,2.419 -5.402,-0.685 -5.805,-3.724C-5.581,-3.913 -5.348,-4.101 -5.111,-4.289" style="fill:rgb(184,90,29);fill-rule:nonzero;"/>
            </g>
            <g transform="matrix(1,0,0,1,221.831,173.032)">
                <path d="M0,0.185C0.008,0.123 0.012,0.061 0.018,0C0.01,0 0.002,0.001 -0.006,0.002C-0.003,0.063 -0.002,0.124 0,0.185" style="fill:rgb(184,90,29);fill-rule:nonzero;"/>
            </g>
            <g transform="matrix(1,0,0,1,221.856,171.404)">
                <path d="M0,0.865C-0.02,0.573 -0.063,0.283 -0.133,-0.005C-0.109,0.287 -0.073,0.577 -0.055,0.87C-0.037,0.868 -0.018,0.867 0,0.865" style="fill:rgb(184,90,29);fill-rule:nonzero;"/>
            </g>
            <g transform="matrix(0.705925,0.708286,0.708286,-0.705925,140.555,121.294)">
                <path d="M0.121,0.605C0.241,0.768 0.362,0.93 0.484,1.092C0.358,1.356 0.241,1.615 0.121,1.876C-0.52,1.027 -1.144,0.172 -1.746,-0.692C-1.137,-0.232 -0.513,0.198 0.121,0.605" style="fill:rgb(184,90,29);fill-rule:nonzero;"/>
            </g>
            <g transform="matrix(1,0,0,1,85.5977,168.28)">
                <path d="M0,0.981C0.023,0.944 0.046,0.908 0.071,0.872C0.109,0.579 0.164,0.291 0.208,0C0.135,0.326 0.058,0.652 0,0.981" style="fill:rgb(184,90,29);fill-rule:nonzero;"/>
            </g>
            <g transform="matrix(1,0,0,1,153.911,229.376)">
                <path d="M0,1.433L0,0.673C-0.11,0.674 -0.219,0.68 -0.33,0.68C-3.988,0.68 -7.577,0.441 -11.082,-0.007C-10.976,0.27 -10.867,0.534 -10.76,0.804C-7.357,1.222 -3.875,1.44 -0.33,1.44C-0.219,1.44 -0.11,1.433 0,1.433" style="fill:rgb(184,90,29);fill-rule:nonzero;"/>
            </g>
            <g transform="matrix(-0.131004,0.991382,0.991382,0.131004,137.9,223.43)">
                <path d="M5.233,-5.851C5.734,-2.205 5.998,1.537 5.997,5.35C5.747,5.211 5.49,5.073 5.233,4.935C5.214,0.999 4.921,-2.862 4.364,-6.614C4.661,-6.362 4.946,-6.105 5.233,-5.851" style="fill:rgb(184,90,29);fill-rule:nonzero;"/>
            </g>
            <g transform="matrix(1,0,0,1,221.564,168.28)">
                <path d="M0,0.981C-0.058,0.652 -0.135,0.326 -0.208,0C-0.164,0.291 -0.109,0.579 -0.071,0.872C-0.046,0.908 -0.023,0.944 0,0.981" style="fill:rgb(184,90,29);fill-rule:nonzero;"/>
            </g>
            <g transform="matrix(1,0,0,1,111.056,166.717)">
                <path d="M0,-34.696C0.301,-35.187 0.596,-35.686 0.908,-36.166C-11.637,-28.492 -20.836,-17.441 -24.624,-4.704C-25.223,-2.686 -25.685,-0.627 -26.004,1.47C-25.586,-0.407 -24.923,-2.241 -24.029,-4.023C-20.514,-16.329 -11.868,-27.067 0,-34.696" style="fill:rgb(184,90,29);fill-rule:nonzero;"/>
            </g>
            <g transform="matrix(1,0,0,1,113.236,173.749)">
                <path d="M0,46.518C-0.339,46.032 -0.675,45.541 -1.003,45.042C-16.074,35.78 -26.224,21.592 -27.744,5.488C-28.29,3.697 -28.605,1.865 -28.683,0C-28.692,0.345 -28.713,0.687 -28.715,1.034C-28.715,1.118 -28.723,1.2 -28.723,1.284C-28.723,2.073 -28.689,2.855 -28.649,3.637C-28.421,8.036 -27.554,12.302 -26.131,16.383C-21.849,28.661 -12.491,39.23 0,46.518" style="fill:rgb(184,90,29);fill-rule:nonzero;"/>
            </g>
            <g transform="matrix(1,0,0,1,221.669,214.485)">
                <path d="M0,-35.248C-1.5,-19.341 -11.426,-5.309 -26.191,3.959C-26.529,4.479 -26.881,4.981 -27.23,5.488C-14.994,-1.789 -5.836,-12.242 -1.613,-24.352C-0.189,-28.434 0.678,-32.7 0.905,-37.099C0.946,-37.88 0.979,-38.663 0.979,-39.452C0.979,-39.536 0.972,-39.618 0.971,-39.702C0.969,-40.048 0.949,-40.391 0.939,-40.736C0.862,-38.871 0.546,-37.039 0,-35.248" style="fill:rgb(184,90,29);fill-rule:nonzero;"/>
            </g>
            <g transform="matrix(-0.314338,-0.949311,-0.949311,0.314338,178.991,202.808)">
                <path d="M-5.051,-6.993C-4.99,-3.625 -4.758,-0.152 -4.325,3.408L-5.051,3.648C-5.474,0.181 -5.716,-3.207 -5.788,-6.499C-5.545,-6.665 -5.298,-6.828 -5.051,-6.993" style="fill:rgb(184,90,29);fill-rule:nonzero;"/>
            </g>
            <g transform="matrix(1,0,0,1,153.911,210.253)">
                <path d="M0,0.776L0,0.016C-0.11,0.017 -0.219,0.021 -0.33,0.021C-0.961,0.021 -1.585,0.004 -2.212,-0.005C-2.177,0.239 -2.137,0.483 -2.137,0.737C-2.137,0.743 -2.138,0.749 -2.138,0.755C-1.535,0.764 -0.936,0.781 -0.33,0.781C-0.219,0.781 -0.11,0.776 0,0.776" style="fill:rgb(184,90,29);fill-rule:nonzero;"/>
            </g>
            <g transform="matrix(0.438882,0.898545,0.898545,-0.438882,188.804,196.612)">
                <path d="M7.999,-4.995C8.894,1.032 9.151,6.781 8.779,12.077C8.517,12.32 8.264,12.567 7.999,12.809C8.437,7.497 8.215,1.693 7.337,-4.406C7.56,-4.602 7.779,-4.799 7.999,-4.995" style="fill:rgb(184,90,29);fill-rule:nonzero;"/>
            </g>
            <g transform="matrix(-0.490402,-0.871496,-0.871496,0.490402,105.209,141.747)">
                <path d="M-4.135,-7.223C-3.711,-4.135 -3.47,-1.133 -3.418,1.756C-3.654,2.031 -3.895,2.303 -4.135,2.575C-4.153,-0.5 -4.396,-3.713 -4.851,-7.027C-4.61,-7.086 -4.372,-7.151 -4.135,-7.223" style="fill:rgb(184,90,29);fill-rule:nonzero;"/>
            </g>
            <g transform="matrix(1,0,0,1,154.671,210.255)">
                <path d="M0,0.713C0.084,0.488 0.163,0.256 0.223,0C0.148,0.001 0.074,0.003 0,0.004L0,0.713Z" style="fill:rgb(184,90,29);fill-rule:nonzero;"/>
            </g>
            <g transform="matrix(-0.361496,-0.932374,-0.932374,0.361496,140.077,209.345)">
                <path d="M-0.787,-1.135C-0.551,-0.668 -0.32,-0.193 -0.079,0.268C-0.318,0.361 -0.558,0.453 -0.787,0.542C-1.01,0.116 -1.223,-0.32 -1.441,-0.75C-1.213,-0.865 -0.992,-0.987 -0.787,-1.135" style="fill:rgb(184,90,29);fill-rule:nonzero;"/>
            </g>
            <g transform="matrix(0.34943,-0.936963,-0.936963,-0.34943,118.361,195.681)">
                <path d="M-8.509,-5.811C-8.944,0.854 -8.646,7.123 -7.66,12.772C-7.947,12.557 -8.227,12.335 -8.509,12.118C-9.424,6.48 -9.674,0.263 -9.219,-6.328C-8.984,-6.154 -8.746,-5.983 -8.509,-5.811" style="fill:rgb(184,90,29);fill-rule:nonzero;"/>
            </g>
            <g transform="matrix(-0.393775,-0.919207,-0.919207,0.393775,139.562,134.578)">
                <path d="M-1.604,-2.048C-1.298,-1.1 -1.003,-0.154 -0.725,0.79C-1.015,0.659 -1.309,0.561 -1.604,0.466C-1.826,-0.27 -2.067,-1.009 -2.305,-1.748L-1.604,-2.048Z" style="fill:rgb(184,90,29);fill-rule:nonzero;"/>
            </g>
            <g transform="matrix(0.37978,0.925077,0.925077,-0.37978,125.094,136.364)">
                <path d="M2.246,-1.558C2.458,-0.018 2.711,1.539 2.999,3.11C2.739,3.1 2.487,3.119 2.246,3.16C1.973,1.662 1.734,0.174 1.53,-1.298C1.771,-1.4 2.009,-1.486 2.246,-1.558" style="fill:rgb(184,90,29);fill-rule:nonzero;"/>
            </g>
            <g transform="matrix(0.161682,-0.986843,-0.986843,-0.161682,182.38,133.574)">
                <path d="M-4.942,-4.388C-4.557,-1.284 -4.311,1.929 -4.21,5.23C-4.457,5.518 -4.704,5.808 -4.942,6.121C-5.025,2.365 -5.286,-1.285 -5.735,-4.784C-5.472,-4.651 -5.202,-4.522 -4.942,-4.388" style="fill:rgb(184,90,29);fill-rule:nonzero;"/>
            </g>
            <g transform="matrix(-0.341728,0.939799,0.939799,0.341728,199.944,136.93)">
                <path d="M7.559,-10.988C7.264,-4.986 7.559,0.682 8.418,5.846C8.13,5.612 7.842,5.376 7.559,5.139C6.767,-0.005 6.518,-5.618 6.837,-11.539C7.074,-11.355 7.317,-11.171 7.559,-10.988" style="fill:rgb(184,90,29);fill-rule:nonzero;"/>
            </g>
            <g transform="matrix(0.145852,-0.989306,-0.989306,-0.145852,126.925,203.392)">
                <path d="M-4.07,-3.485C-3.913,-0.638 -3.644,2.135 -3.274,4.826C-3.538,4.708 -3.808,4.595 -4.07,4.475C-4.419,1.855 -4.681,-0.835 -4.832,-3.597L-4.07,-3.485Z" style="fill:rgb(184,90,29);fill-rule:nonzero;"/>
            </g>
            <g transform="matrix(1,0,0,1,221.656,195.519)">
                <path d="M0,-19.701C-1.19,-11.386 -7.359,-3.829 -16.884,2.077C-16.981,2.426 -17.079,2.774 -17.181,3.12C-8.369,-2.189 -2.248,-8.877 0.013,-16.282C0.559,-18.073 0.875,-19.905 0.952,-21.77C0.956,-21.873 0.963,-21.975 0.966,-22.078C0.971,-22.268 0.992,-22.457 0.992,-22.648C0.992,-22.706 0.984,-22.764 0.984,-22.821C0.967,-21.759 0.624,-20.717 0,-19.701" style="fill:rgb(184,90,29);fill-rule:nonzero;"/>
            </g>
            <g transform="matrix(1,0,0,1,85.5977,149.222)">
                <path d="M0,20.039C0.058,19.71 0.135,19.384 0.208,19.058C2.032,10.942 8.615,3.626 18.385,-2.029C18.506,-2.386 18.636,-2.735 18.762,-3.089C10.653,1.468 4.604,7.142 1.429,13.472C0.535,15.254 -0.127,17.088 -0.545,18.964C-0.744,19.858 -0.907,20.758 -0.992,21.67C-1.037,22.153 -1.048,22.641 -1.061,23.128C-1.009,22.076 -0.646,21.044 0,20.039" style="fill:rgb(184,90,29);fill-rule:nonzero;"/>
            </g>
            <g transform="matrix(1,0,0,1,85.4927,192.321)">
                <path d="M0,-13.084C2.292,-5.575 8.562,1.194 17.575,6.539C17.474,6.197 17.371,5.857 17.273,5.513C7.532,-0.427 1.219,-8.077 0.013,-16.503C-0.611,-17.519 -0.954,-18.561 -0.971,-19.623C-0.972,-19.565 -0.979,-19.508 -0.979,-19.45C-0.979,-19.259 -0.958,-19.07 -0.953,-18.88C-0.95,-18.777 -0.943,-18.675 -0.939,-18.572C-0.862,-16.707 -0.546,-14.875 0,-13.084" style="fill:rgb(184,90,29);fill-rule:nonzero;"/>
            </g>
            <g transform="matrix(1,0,0,1,220.135,156.018)">
                <path d="M0,6.675C-3.122,0.449 -9.029,-5.139 -16.938,-9.657C-16.814,-9.304 -16.682,-8.956 -16.563,-8.6C-7.007,-2.976 -0.578,4.255 1.221,12.262C1.294,12.588 1.372,12.914 1.429,13.243C2.075,14.248 2.438,15.279 2.489,16.332C2.478,15.844 2.466,15.357 2.421,14.874C2.336,13.962 2.173,13.062 1.975,12.168C1.557,10.292 0.894,8.458 0,6.675" style="fill:rgb(184,90,29);fill-rule:nonzero;"/>
            </g>
            <g transform="matrix(1,0,0,1,142.077,154.377)">
                <path d="M0,0.148L0,-0.002L-0.05,0.15C-0.033,0.149 -0.017,0.148 0,0.148" style="fill:rgb(184,90,29);fill-rule:nonzero;"/>
            </g>
            <g transform="matrix(0.0671516,-0.997743,-0.997743,-0.0671516,124.791,183.721)">
                <path d="M-5.74,-5.386C-5.609,-1.343 -5.367,2.532 -5.021,6.19C-5.263,6.146 -5.499,6.095 -5.74,6.051C-6.091,2.411 -6.342,-1.426 -6.48,-5.436L-5.74,-5.386Z" style="fill:rgb(184,90,29);fill-rule:nonzero;"/>
            </g>
            <g transform="matrix(1,0,0,1,161.163,153.567)">
                <path d="M0,0.756C0.061,0.506 0.161,0.276 0.28,0.06C-1.515,0.003 -3.33,-0.033 -5.163,-0.051L-5.163,0.709C-3.429,0.725 -1.71,0.757 -0.011,0.807C-0.007,0.792 -0.004,0.771 0,0.756" style="fill:rgb(184,90,29);fill-rule:nonzero;"/>
            </g>
            <g transform="matrix(-0.190308,0.981724,0.981724,0.190308,201.261,151.53)">
                <path d="M7.592,-9.181C7.487,-3.349 7.714,1.946 8.268,6.511C8.04,6.429 7.818,6.34 7.592,6.257C7.038,1.66 6.802,-3.625 6.896,-9.431C7.129,-9.349 7.357,-9.262 7.592,-9.181" style="fill:rgb(184,90,29);fill-rule:nonzero;"/>
            </g>
            <g transform="matrix(-0.064971,-0.997887,-0.997887,0.064971,143.332,187.813)">
                <path d="M-3.303,-3.58C-3.083,-1.157 -2.834,1.229 -2.553,3.568C-2.803,3.587 -3.052,3.605 -3.303,3.623C-3.607,1.113 -3.873,-1.453 -4.105,-4.06C-3.838,-3.901 -3.571,-3.741 -3.303,-3.58" style="fill:rgb(184,90,29);fill-rule:nonzero;"/>
            </g>
            <g transform="matrix(-0.305462,-0.952204,-0.952204,0.305462,103.513,154.428)">
                <path d="M-5.41,-7.417C-4.988,-3.446 -4.777,0.242 -4.767,3.606C-4.983,3.718 -5.192,3.835 -5.41,3.946C-5.419,0.619 -5.637,-3.055 -6.061,-7.012C-5.838,-7.137 -5.621,-7.272 -5.41,-7.417" style="fill:rgb(184,90,29);fill-rule:nonzero;"/>
            </g>
            <g transform="matrix(0.0708952,-0.997484,-0.997484,-0.0708952,185.373,150.745)">
                <path d="M-5.285,-4.919C-4.947,-1.524 -4.702,2.058 -4.553,5.791C-4.77,5.76 -5.016,5.756 -5.285,5.787C-5.429,1.989 -5.673,-1.644 -6.009,-5.084C-5.766,-5.031 -5.528,-4.973 -5.285,-4.919" style="fill:rgb(184,90,29);fill-rule:nonzero;"/>
            </g>
            <g transform="matrix(-0.18642,-0.98247,-0.98247,0.18642,181.312,182.971)">
                <path d="M-6.691,-8.079C-6.624,-3.843 -6.386,0.668 -5.964,5.403L-6.691,5.54C-7.101,0.844 -7.329,-3.64 -7.389,-7.859C-7.155,-7.932 -6.925,-8.007 -6.691,-8.079" style="fill:rgb(184,90,29);fill-rule:nonzero;"/>
            </g>
            <g transform="matrix(-0.40381,-0.914843,-0.914843,0.40381,161.591,190.499)">
                <path d="M-0.93,-1.427C-0.751,-0.975 -0.567,-0.52 -0.384,-0.067L-0.93,0.606C-1.164,0.029 -1.394,-0.547 -1.622,-1.122L-0.93,-1.427Z" style="fill:rgb(184,90,29);fill-rule:nonzero;"/>
            </g>
            <g transform="matrix(0.278194,0.960525,0.960525,-0.278194,194.609,179.617)">
                <path d="M7.703,-5.789C8.307,0.034 8.528,5.355 8.356,9.989C8.141,10.08 7.92,10.161 7.703,10.251C7.875,5.65 7.65,0.334 7.031,-5.513C7.255,-5.605 7.48,-5.696 7.703,-5.789" style="fill:rgb(184,90,29);fill-rule:nonzero;"/>
            </g>
            <g transform="matrix(0.190727,-0.981643,-0.981643,-0.190727,112.374,178.785)">
                <path d="M-8.247,-6.828C-8.411,-0.45 -8.186,5.317 -7.581,10.228C-7.802,10.158 -8.027,10.094 -8.247,10.024C-8.858,5.069 -9.1,-0.69 -8.948,-7.052C-8.714,-6.977 -8.482,-6.901 -8.247,-6.828" style="fill:rgb(184,90,29);fill-rule:nonzero;"/>
            </g>
            <g transform="matrix(1,0,0,1,221.564,175.772)">
                <path d="M0,-6.511C-0.023,-6.548 -0.046,-6.584 -0.071,-6.62C-2.241,-9.89 -7.412,-12.873 -14.786,-15.336C-14.748,-15.098 -14.716,-14.857 -14.68,-14.618C-6.186,-11.771 -0.784,-8.234 0.159,-4.373C0.229,-4.085 0.272,-3.795 0.292,-3.503C0.415,-3.515 0.545,-3.527 0.666,-3.539L0.743,-2.783C0.597,-2.769 0.434,-2.755 0.285,-2.74C0.279,-2.679 0.275,-2.617 0.267,-2.555C-0.221,1.463 -5.537,5.156 -14.176,8.123C-14.202,8.357 -14.22,8.593 -14.247,8.825C-6.977,6.335 -1.924,3.332 0.092,0.046C0.716,-0.97 1.059,-2.012 1.076,-3.074C1.077,-3.104 1.084,-3.132 1.084,-3.161C1.084,-3.249 1.064,-3.335 1.06,-3.422C1.009,-4.474 0.646,-5.506 0,-6.511" style="fill:rgb(184,90,29);fill-rule:nonzero;"/>
            </g>
            <g transform="matrix(1,0,0,1,85.5054,169.224)">
                <path d="M0,6.594C2.047,9.93 7.216,12.976 14.664,15.488C14.636,15.254 14.618,15.017 14.593,14.782C5.762,11.797 0.32,8.061 -0.175,3.993C-0.184,3.922 -0.189,3.851 -0.195,3.781C-0.442,3.773 -0.59,3.768 -0.624,3.767L-0.6,3.007C-0.567,3.008 -0.43,3.012 -0.197,3.02C-0.176,2.737 -0.135,2.455 -0.066,2.175C0.888,-1.736 6.415,-5.317 15.101,-8.182C15.138,-8.419 15.172,-8.657 15.21,-8.894C7.664,-6.41 2.365,-3.39 0.163,-0.072C0.139,-0.036 0.116,0.001 0.092,0.037C-0.553,1.043 -0.917,2.074 -0.968,3.127C-0.972,3.214 -0.992,3.3 -0.992,3.387C-0.992,3.416 -0.984,3.445 -0.984,3.474C-0.967,4.536 -0.624,5.578 0,6.594" style="fill:rgb(184,90,29);fill-rule:nonzero;"/>
            </g>
            <g transform="matrix(1,0,0,1,194.193,148.702)">
                <path d="M0,-18.749C0.328,-18.262 0.657,-17.775 0.974,-17.275C3.757,-12.903 6.12,-8.082 7.998,-2.913C8.124,-2.565 8.247,-2.215 8.369,-1.864C9.841,2.375 10.99,6.834 11.766,11.472C11.805,11.709 11.85,11.944 11.887,12.183C12.519,16.168 12.865,20.281 12.926,24.482C13.183,24.472 13.431,24.461 13.685,24.451C13.625,20.355 13.29,16.345 12.691,12.452C12.654,12.213 12.623,11.972 12.584,11.733C11.851,7.218 10.769,2.864 9.378,-1.284C9.259,-1.641 9.127,-1.988 9.003,-2.341C7.243,-7.357 5.03,-12.056 2.425,-16.356C2.127,-16.85 1.829,-17.343 1.52,-17.825C-5.752,-29.187 -15.797,-37.55 -27.288,-41.224C-30.858,-42.365 -34.568,-43.046 -38.377,-43.231C-35.995,-43.064 -33.671,-42.487 -31.422,-41.541C-18.943,-38.809 -7.934,-30.526 0,-18.749" style="fill:rgb(184,90,29);fill-rule:nonzero;"/>
            </g>
            <g transform="matrix(1,0,0,1,154.112,173.417)">
                <path d="M0,70.112C-2.395,70.082 -4.736,69.638 -7.006,68.819C-19.675,66.802 -30.977,59.096 -39.298,47.758C-39.655,47.271 -40.008,46.779 -40.354,46.279C-44.461,40.346 -47.771,33.497 -50.078,26.003C-50.183,25.662 -50.293,25.323 -50.394,24.98C-51.653,20.69 -52.588,16.199 -53.151,11.552C-53.179,11.323 -53.198,11.09 -53.225,10.859C-53.586,7.656 -53.783,4.385 -53.783,1.056C-53.783,0.704 -53.766,0.358 -53.762,0.008C-54.016,0.001 -54.272,-0.005 -54.521,-0.012C-54.525,0.345 -54.542,0.698 -54.542,1.056C-54.542,4.292 -54.354,7.47 -54.014,10.589C-53.989,10.824 -53.971,11.061 -53.943,11.295C-53.413,15.827 -52.535,20.215 -51.347,24.417C-51.249,24.761 -51.146,25.101 -51.044,25.443C-48.872,32.758 -45.755,39.483 -41.879,45.374C-41.551,45.873 -41.215,46.364 -40.876,46.85C-33.641,57.242 -23.994,64.833 -13.062,68.192C-9.011,69.437 -4.789,70.115 -0.443,70.122C-0.42,70.122 -0.398,70.124 -0.375,70.124C-0.249,70.124 -0.125,70.113 0,70.112" style="fill:rgb(184,90,29);fill-rule:nonzero;"/>
            </g>
            <g transform="matrix(1,0,0,1,207.894,243.473)">
                <path d="M0,-69.562C-0.255,-69.552 -0.501,-69.541 -0.759,-69.531C-0.758,-69.354 -0.749,-69.179 -0.749,-69.001C-0.749,-65.71 -0.942,-62.477 -1.296,-59.309C-1.321,-59.076 -1.338,-58.84 -1.366,-58.609C-1.917,-54.004 -2.834,-49.552 -4.069,-45.296C-4.169,-44.952 -4.281,-44.616 -4.385,-44.274C-6.658,-36.817 -9.924,-29.995 -13.979,-24.071C-14.314,-23.58 -14.652,-23.092 -14.999,-22.613C-22.815,-11.828 -33.312,-4.275 -45.122,-1.69C-47.372,-0.744 -49.695,-0.166 -52.077,0C-48.268,-0.185 -44.558,-0.866 -40.988,-2.007C-30.151,-5.472 -20.607,-13.113 -13.455,-23.501C-13.106,-24.008 -12.753,-24.51 -12.416,-25.03C-8.608,-30.897 -5.551,-37.58 -3.418,-44.834C-3.316,-45.181 -3.219,-45.529 -3.121,-45.877C-1.957,-50.043 -1.096,-54.388 -0.576,-58.876C-0.549,-59.108 -0.531,-59.345 -0.506,-59.579C-0.174,-62.662 0.011,-65.803 0.011,-69.001C0.011,-69.189 0.001,-69.375 0,-69.562" style="fill:rgb(184,90,29);fill-rule:nonzero;"/>
            </g>
            <g transform="matrix(1,0,0,1,111.964,147.519)">
                <path d="M0,-16.968C-0.312,-16.488 -0.606,-15.989 -0.908,-15.498C-3.558,-11.175 -5.812,-6.442 -7.604,-1.385C-7.73,-1.032 -7.86,-0.682 -7.981,-0.326C-9.397,3.858 -10.5,8.251 -11.248,12.811C-11.287,13.048 -11.321,13.286 -11.357,13.523C-11.942,17.29 -12.276,21.168 -12.357,25.126C-12.104,25.133 -11.857,25.139 -11.598,25.146C-11.515,21.091 -11.171,17.117 -10.556,13.265C-10.517,13.025 -10.469,12.789 -10.429,12.55C-9.64,7.868 -8.471,3.368 -6.972,-0.906C-6.852,-1.248 -6.733,-1.592 -6.608,-1.932C-4.696,-7.15 -2.292,-12.016 0.542,-16.416C0.859,-16.907 1.19,-17.38 1.517,-17.859C9.944,-30.227 21.782,-38.682 35.143,-40.809C37.412,-41.628 39.754,-42.072 42.148,-42.102C42.023,-42.103 41.899,-42.114 41.773,-42.114C41.75,-42.114 41.728,-42.112 41.705,-42.112C37.36,-42.105 33.138,-41.427 29.087,-40.182C17.505,-36.623 7.356,-28.323 0,-16.968" style="fill:rgb(184,90,29);fill-rule:nonzero;"/>
            </g>
            <g transform="matrix(1,0,0,1,119.834,150.442)">
                <path d="M0,0.203C-0.207,0.076 -0.415,-0.049 -0.613,-0.189C-0.634,-0.203 -0.654,-0.22 -0.675,-0.235C-0.721,-0.01 -0.771,0.212 -0.816,0.438C-0.551,0.364 -0.286,0.29 -0.006,0.231C-0.004,0.222 -0.002,0.212 0,0.203" style="fill:rgb(184,90,29);fill-rule:nonzero;"/>
            </g>
            <g transform="matrix(1,0,0,1,190.497,211.005)">
                <path d="M0,-22.967C-0.027,-22.723 -0.058,-22.483 -0.086,-22.24C-0.762,-16.38 -1.848,-10.801 -3.28,-5.6C-3.358,-5.315 -3.436,-5.028 -3.517,-4.745C-5.44,2.006 -7.956,8.086 -10.935,13.265C-10.771,13.417 -10.599,13.557 -10.407,13.675C-10.388,13.687 -10.37,13.695 -10.352,13.707C-7.247,8.335 -4.642,2.011 -2.67,-5.014C-2.591,-5.298 -2.51,-5.581 -2.432,-5.867C-1.03,-11.041 0.034,-16.574 0.695,-22.379C0.722,-22.618 0.747,-22.86 0.772,-23.1C1.241,-27.447 1.492,-31.937 1.492,-36.533C1.492,-36.58 1.49,-36.627 1.49,-36.674C1.236,-36.67 0.985,-36.666 0.73,-36.662C0.73,-36.618 0.732,-36.576 0.732,-36.533C0.732,-31.889 0.479,-27.353 0,-22.967" style="fill:rgb(184,90,29);fill-rule:nonzero;"/>
            </g>
            <g transform="matrix(-0.994568,0.104093,0.104093,0.994568,117.816,173.02)">
                <path d="M0.284,-5.614C0.577,-3.795 0.821,-1.945 1.037,-0.079C0.785,-0.048 0.537,-0.016 0.284,0.016C0.076,-1.777 -0.159,-3.554 -0.437,-5.302C-0.19,-5.395 0.052,-5.498 0.284,-5.614" style="fill:rgb(184,90,29);fill-rule:nonzero;"/>
            </g>
            <g transform="matrix(1,0,0,1,157.767,120.526)">
                <path d="M0,-14.06C7.509,-12.783 14.373,-7.322 19.903,1.061C20.074,0.886 20.245,0.722 20.416,0.54C20.418,0.537 20.422,0.535 20.425,0.533C16.009,-6.118 10.755,-10.946 5.005,-13.364C2.755,-14.31 0.432,-14.888 -1.95,-15.054C-2.116,-15.065 -2.282,-15.07 -2.448,-15.077C-2.763,-15.092 -3.077,-15.121 -3.394,-15.121C-3.412,-15.121 -3.43,-15.119 -3.447,-15.119C-2.271,-15.113 -1.121,-14.739 0,-14.06" style="fill:rgb(184,90,29);fill-rule:nonzero;"/>
            </g>
            <g transform="matrix(1,0,0,1,186.174,163.039)">
                <path d="M0,-23.032C1.607,-17.958 2.87,-12.47 3.73,-6.674C3.767,-6.428 3.808,-6.186 3.843,-5.939C4.592,-0.665 5.003,4.859 5.043,10.546C5.296,10.542 5.551,10.539 5.802,10.535C5.763,4.904 5.364,-0.571 4.629,-5.803C4.594,-6.05 4.552,-6.289 4.516,-6.534C3.673,-12.273 2.435,-17.713 0.861,-22.761C0.771,-23.05 0.681,-23.341 0.589,-23.628C-0.549,-27.16 -1.855,-30.486 -3.306,-33.578C-3.425,-33.27 -3.539,-32.961 -3.682,-32.657C-2.425,-29.906 -1.277,-26.977 -0.263,-23.879C-0.172,-23.601 -0.089,-23.313 0,-23.032" style="fill:rgb(184,90,29);fill-rule:nonzero;"/>
            </g>
            <g transform="matrix(1,0,0,1,150.767,174.891)">
                <path d="M0,67.558C-7.276,66.243 -13.934,60.982 -19.353,52.96C-19.568,52.641 -19.784,52.326 -19.995,51.998C-23.598,46.417 -26.619,39.591 -28.862,31.875C-28.942,31.599 -29.016,31.315 -29.094,31.037C-30.575,25.769 -31.697,20.106 -32.398,14.15C-32.427,13.907 -32.462,13.667 -32.489,13.423C-32.987,8.952 -33.251,4.322 -33.251,-0.419C-33.251,-0.636 -33.243,-0.85 -33.242,-1.067C-33.495,-1.072 -33.75,-1.077 -34.001,-1.083C-34.002,-0.86 -34.011,-0.641 -34.011,-0.419C-34.011,4.274 -33.752,8.858 -33.264,13.291C-33.237,13.537 -33.206,13.778 -33.177,14.022C-32.49,19.928 -31.387,25.55 -29.934,30.793C-29.855,31.076 -29.778,31.358 -29.698,31.638C-27.507,39.28 -24.56,46.075 -21.038,51.696C-20.835,52.019 -20.635,52.35 -20.429,52.665C-15.682,59.924 -9.949,65.074 -3.66,67.344C-1.391,68.163 0.951,68.607 3.346,68.637C3.375,68.637 3.402,68.641 3.431,68.641C2.261,68.622 1.115,68.243 0,67.558" style="fill:rgb(184,90,29);fill-rule:nonzero;"/>
            </g>
            <g transform="matrix(1,0,0,1,147.106,119.106)">
                <path d="M0,-12.396C-5.998,-10.231 -11.485,-5.438 -16.099,1.297C-15.791,1.264 -15.477,1.238 -15.162,1.214C-9.841,-6.373 -3.38,-11.337 3.66,-12.61C4.775,-13.295 5.921,-13.675 7.091,-13.693C7.062,-13.693 7.035,-13.689 7.006,-13.689C4.611,-13.659 2.27,-13.215 0,-12.396" style="fill:rgb(184,90,29);fill-rule:nonzero;"/>
            </g>
            <g transform="matrix(1,0,0,1,162.771,232.425)">
                <path d="M0,9.358C4.845,7.32 9.334,3.565 13.27,-1.547C13.035,-1.612 12.811,-1.667 12.568,-1.741C12.552,-1.746 12.536,-1.752 12.521,-1.757C7.45,4.747 1.463,8.954 -5.005,10.054C-6.125,10.733 -7.276,11.107 -8.452,11.113C-8.435,11.113 -8.417,11.115 -8.399,11.115C-8.082,11.115 -7.768,11.086 -7.453,11.071C-7.287,11.064 -7.121,11.059 -6.955,11.048C-4.573,10.882 -2.25,10.304 0,9.358" style="fill:rgb(184,90,29);fill-rule:nonzero;"/>
            </g>
            <g transform="matrix(0.969163,-0.246421,-0.246421,-0.969163,136.277,153.069)">
                <path d="M-0.321,-0.021C-0.034,0.786 0.255,1.589 0.547,2.379C0.267,2.294 -0.028,2.228 -0.321,2.158C-0.557,1.516 -0.79,0.866 -1.024,0.213C-0.797,0.121 -0.558,0.052 -0.321,-0.021" style="fill:rgb(184,90,29);fill-rule:nonzero;"/>
            </g>
            <g transform="matrix(0.982585,-0.185812,-0.185812,-0.982585,174.468,151.842)">
                <path d="M-1.254,-0.115C-0.841,4.552 -0.605,9.03 -0.547,13.247C-0.779,13.24 -1.016,13.241 -1.254,13.242C-1.323,9.074 -1.568,4.642 -1.984,0.023L-1.254,-0.115Z" style="fill:rgb(184,90,29);fill-rule:nonzero;"/>
            </g>
            <g transform="matrix(1,0,0,1,138.551,135.091)">
                <path d="M0,-3.306C-0.214,-2.37 -0.421,-1.416 -0.622,-0.443C-0.542,-0.392 -0.452,-0.355 -0.375,-0.302C-0.241,-0.207 -0.129,-0.099 -0.002,0C0.212,-1.071 0.434,-2.119 0.665,-3.143C0.453,-3.202 0.235,-3.257 0,-3.306" style="fill:rgb(184,90,29);fill-rule:nonzero;"/>
            </g>
            <g transform="matrix(1,0,0,1,157.767,224.098)">
                <path d="M0,18.382C3.139,16.482 6.029,12.077 8.486,5.761C8.588,5.498 8.687,5.219 8.787,4.95C9.206,3.831 9.614,2.669 10.006,1.441C9.81,1.278 9.627,1.131 9.457,0.998C9.012,2.424 8.549,3.778 8.069,5.054C7.964,5.333 7.854,5.595 7.748,5.867C4.68,13.676 0.943,18.37 -3.096,18.649L-3.096,19.063L-3.855,19.063L-3.855,18.649C-7.858,18.372 -11.563,13.761 -14.615,6.082C-14.723,5.812 -14.832,5.548 -14.937,5.271C-15.674,3.336 -16.37,1.218 -17.021,-1.061C-17.21,-0.935 -17.414,-0.836 -17.628,-0.762C-17.011,1.36 -16.352,3.334 -15.659,5.166C-15.556,5.439 -15.453,5.713 -15.349,5.979C-12.924,12.143 -10.083,16.459 -7,18.352C-5.885,19.037 -4.739,19.416 -3.569,19.435C-3.538,19.435 -3.507,19.443 -3.476,19.443C-3.466,19.443 -3.457,19.441 -3.447,19.441C-2.271,19.435 -1.121,19.06 0,18.382" style="fill:rgb(184,90,29);fill-rule:nonzero;"/>
            </g>
            <g transform="matrix(1,0,0,1,150.767,124.966)">
                <path d="M0,-18.471C-3.275,-16.46 -6.276,-11.703 -8.797,-4.911C-8.897,-4.642 -8.998,-4.376 -9.097,-4.1C-9.122,-4.031 -9.147,-3.966 -9.172,-3.895C-8.984,-3.85 -8.792,-3.816 -8.606,-3.767C-8.583,-3.761 -8.557,-3.754 -8.533,-3.747C-8.479,-3.902 -8.424,-4.053 -8.369,-4.205C-8.272,-4.475 -8.177,-4.752 -8.078,-5.015C-4.942,-13.409 -1.062,-18.477 3.145,-18.768L3.145,-19.182L3.904,-19.182L3.904,-18.768C8.145,-18.475 12.054,-13.32 15.203,-4.799C15.301,-4.534 15.397,-4.261 15.494,-3.99C16.059,-2.399 16.602,-0.71 17.113,1.091C17.347,1.082 17.568,1.067 17.791,1.052C17.294,-0.684 16.772,-2.335 16.225,-3.885C16.126,-4.161 16.025,-4.424 15.925,-4.694C13.376,-11.636 10.329,-16.486 7,-18.501C5.879,-19.179 4.729,-19.554 3.553,-19.559C3.543,-19.559 3.534,-19.562 3.524,-19.562C3.493,-19.562 3.462,-19.554 3.431,-19.554C2.261,-19.535 1.115,-19.156 0,-18.471" style="fill:rgb(184,90,29);fill-rule:nonzero;"/>
            </g>
            <g transform="matrix(1,0,0,1,154.671,236.522)">
                <path d="M0,6.638L0,-13.127C-0.253,-13.098 -0.506,-13.074 -0.76,-13.06L-0.76,6.638L0,6.638Z" style="fill:rgb(184,90,29);fill-rule:nonzero;"/>
            </g>
            <g transform="matrix(1,0,0,1,153.911,110.409)">
                <path d="M0,-4.624L0,14.051C0.252,14.112 0.505,14.173 0.76,14.233L0.76,-4.624L0,-4.624Z" style="fill:rgb(184,90,29);fill-rule:nonzero;"/>
            </g>
            <g transform="matrix(1,0,0,1,153.911,203.893)">
                <path d="M0,-1.217L0,8.353C0.314,8.01 0.569,7.585 0.76,7.075L0.76,1.138C0.564,0.373 0.312,-0.412 0,-1.217Z" style="fill:rgb(184,90,29);fill-rule:nonzero;"/>
            </g>
            <g transform="matrix(1,0,0,1,158.123,174.402)">
                <path d="M0,-0.741C-0.708,-0.746 -1.415,-0.751 -2.123,-0.757L-2.123,-0.582C-2.123,-0.398 -2.12,-0.203 -2.115,0.002C-1.527,0.007 -0.938,0.012 -0.349,0.016C-0.231,-0.241 -0.113,-0.495 0,-0.741" style="fill:rgb(184,90,29);fill-rule:nonzero;"/>
            </g>
            <g transform="matrix(1,0,0,1,221.801,174.424)">
                <path d="M0,-2.15C-3.799,-1.775 -8.527,-1.487 -13.923,-1.271C-14.177,-1.261 -14.425,-1.25 -14.682,-1.24C-19.312,-1.062 -24.414,-0.935 -29.825,-0.85C-30.076,-0.846 -30.331,-0.843 -30.584,-0.839C-35.107,-0.772 -39.836,-0.733 -44.685,-0.717L-44.685,0.041C-39.834,0.026 -35.1,-0.013 -30.574,-0.081C-30.319,-0.085 -30.068,-0.089 -29.814,-0.093C-24.406,-0.178 -19.298,-0.304 -14.667,-0.482C-14.409,-0.491 -14.163,-0.503 -13.908,-0.513C-8.511,-0.729 -3.781,-1.017 0.024,-1.391C0.032,-1.392 0.04,-1.392 0.047,-1.393C0.196,-1.407 0.359,-1.421 0.505,-1.436L0.428,-2.191C0.308,-2.179 0.177,-2.168 0.055,-2.155C0.037,-2.153 0.018,-2.152 0,-2.15" style="fill:rgb(184,90,29);fill-rule:nonzero;"/>
            </g>
            <g transform="matrix(1,0,0,1,117.525,172.467)">
                <path d="M0,1.358C3.885,1.44 7.993,1.52 12.254,1.594L12.254,0.834C7.998,0.76 3.892,0.68 0.01,0.598C-0.246,0.593 -0.496,0.587 -0.75,0.582C-6.892,0.451 -12.462,0.318 -17.159,0.197C-17.418,0.191 -17.665,0.184 -17.918,0.178C-25.479,-0.018 -30.655,-0.175 -32.164,-0.222C-32.179,-0.223 -32.202,-0.223 -32.217,-0.224C-32.45,-0.231 -32.587,-0.235 -32.62,-0.236L-32.644,0.524C-32.609,0.525 -32.462,0.529 -32.214,0.537C-32.207,0.537 -32.196,0.538 -32.188,0.538C-30.674,0.585 -25.5,0.742 -17.934,0.938C-17.685,0.944 -17.429,0.951 -17.174,0.958C-12.474,1.078 -6.909,1.212 -0.76,1.342C-0.508,1.347 -0.253,1.353 0,1.358" style="fill:rgb(184,90,29);fill-rule:nonzero;"/>
            </g>
            <g transform="matrix(1,0,0,1,154.092,122.5)">
                <path d="M0,59.861C0.155,59.528 0.318,59.179 0.484,58.823C0.362,58.446 0.234,58.073 0.138,57.681C-0.147,56.51 -0.33,55.352 -0.407,54.209C-0.485,53.063 -0.524,52.099 -0.524,51.319L-0.524,13.037C0.985,13.454 2.755,13.805 4.784,14.09C6.814,14.378 9.234,14.521 12.045,14.521C15.375,14.521 18.068,13.987 20.125,12.921C22.181,11.854 23.755,10.578 24.848,9.095C25.94,7.612 26.656,6.088 26.995,4.527C27.333,2.966 27.45,1.717 27.346,0.779C27.241,0.311 27.035,0.053 26.722,0C26.305,0 26.02,0.079 25.863,0.234C25.03,1.118 24.197,1.925 23.365,2.653C22.532,3.384 21.62,3.993 20.632,4.489C19.643,4.983 18.511,5.361 17.235,5.62C15.96,5.882 14.465,6.01 12.748,6.01C9,6.01 5.669,5.712 2.755,5.113C-0.161,4.515 -2.866,3.837 -5.365,3.083C-7.863,2.329 -10.258,1.653 -12.547,1.053C-14.839,0.455 -17.231,0.154 -19.729,0.154C-23.582,0.154 -26.834,0.832 -29.489,2.185C-32.143,3.539 -34.199,5.244 -35.656,7.299C-37.114,9.355 -38.012,11.58 -38.349,13.974C-38.687,16.369 -38.44,18.593 -37.607,20.648C-36.776,22.706 -35.396,24.41 -33.471,25.762C-31.545,27.116 -29.073,27.793 -26.053,27.793C-23.816,27.793 -21.916,27.428 -20.354,26.7C-18.793,25.97 -17.558,25.074 -16.646,24.006C-15.735,22.94 -15.163,21.77 -14.928,20.492C-14.694,19.218 -14.772,18.047 -15.163,16.98C-15.553,15.914 -16.269,15.016 -17.31,14.285C-18.351,13.557 -19.704,13.194 -21.369,13.194L-22.071,13.194C-22.333,13.194 -22.566,13.376 -22.775,13.739C-22.931,13.948 -22.905,14.235 -22.696,14.598C-22.228,15.173 -21.904,15.925 -21.72,16.862C-21.538,17.799 -21.563,18.724 -21.798,19.635C-22.033,20.545 -22.515,21.324 -23.243,21.975C-23.972,22.627 -25.013,22.952 -26.366,22.952C-27.615,22.952 -28.696,22.549 -29.604,21.742C-30.517,20.936 -31.181,19.921 -31.597,18.697C-32.013,17.474 -32.143,16.147 -31.987,14.715C-31.831,13.285 -31.311,11.958 -30.425,10.734C-29.541,9.512 -28.24,8.496 -26.521,7.688C-24.804,6.882 -22.618,6.478 -19.963,6.478C-17.465,6.478 -15.45,6.714 -13.913,7.182C-12.378,7.65 -10.935,8.223 -9.581,8.899L-9.581,43.708C-7.391,48.642 -4.122,54.18 0,59.861" style="fill:rgb(0,37,97);fill-rule:nonzero;"/>
            </g>
            <g transform="matrix(1,0,0,1,181.475,153.372)">
                <path d="M0,75.18C0,74.815 -0.3,74.517 -0.897,74.282C-1.496,74.048 -2.081,73.748 -2.654,73.385C-3.59,72.811 -4.332,72.005 -4.878,70.964C-5.426,69.923 -5.842,68.819 -6.128,67.647C-6.415,66.475 -6.598,65.316 -6.673,64.173C-6.752,63.027 -6.792,62.065 -6.792,61.285L-6.792,4.916C-6.792,4.085 -6.572,3.5 -6.128,3.161C-5.686,2.822 -5.309,2.524 -4.996,2.263C-4.684,2.003 -4.567,1.769 -4.645,1.561C-4.722,1.354 -4.841,1.248 -4.996,1.248L-17.565,1.248C-17.773,1.248 -17.904,1.354 -17.956,1.561C-18.009,1.769 -17.877,2.003 -17.565,2.263C-17.306,2.524 -16.941,2.822 -16.473,3.161C-16.005,3.5 -15.769,4.085 -15.769,4.916L-15.769,7.182C-15.769,7.91 -15.939,8.821 -16.277,9.913C-16.616,11.008 -17.032,12.165 -17.526,13.389C-18.021,14.612 -18.568,15.834 -19.166,17.057C-19.746,18.242 -25.968,31.829 -26.913,33.671C-35.047,23.175 -41.679,11.334 -42.439,2.684C-42.368,2.336 -42.294,2.038 -42.217,1.804C-42.314,1.834 -42.412,1.886 -42.509,1.912C-43.368,2.146 -44.214,2.263 -45.047,2.263C-46.14,2.263 -47.193,2.106 -48.208,1.795C-49.223,1.482 -50.25,1.158 -51.292,0.819C-52.334,0.48 -53.387,0.155 -54.454,-0.156C-55.521,-0.469 -56.6,-0.625 -57.694,-0.625L-57.928,-0.625C-61,-0.625 -63.263,0.038 -64.72,1.365C-66.177,2.692 -66.984,4.164 -67.14,5.777C-67.296,7.39 -66.866,8.86 -65.852,10.187C-64.837,11.513 -63.419,12.178 -61.597,12.178C-60.401,12.178 -59.229,11.892 -58.083,11.319C-58.969,11.059 -59.606,10.498 -59.997,9.641C-60.387,8.783 -60.504,7.885 -60.348,6.947C-60.191,6.011 -59.723,5.164 -58.942,4.41C-58.162,3.655 -57.068,3.252 -55.664,3.201C-54.258,3.201 -53.14,3.59 -52.307,4.372C-51.474,5.152 -50.823,6.141 -50.355,7.337C-49.886,8.536 -49.588,9.863 -49.457,11.319C-49.328,12.777 -49.261,14.182 -49.261,15.535L-49.261,62.689C-49.261,64.095 -49.471,65.069 -49.886,65.617C-50.304,66.163 -50.694,66.514 -51.058,66.671C-51.422,66.878 -51.553,67.1 -51.448,67.335C-51.345,67.568 -51.214,67.686 -51.058,67.686L-42.235,67.686C-42.079,67.686 -41.95,67.568 -41.845,67.335C-41.741,67.1 -41.872,66.878 -42.235,66.671C-42.6,66.514 -42.991,66.163 -43.406,65.617C-43.823,65.069 -44.032,64.095 -44.032,62.689C-44.032,62.689 -44.199,38.05 -43.64,19.951C-36.46,31.57 -23.927,44.763 -23.927,54.79C-23.927,63.656 -31.945,63.562 -35.058,60.448L-34.963,60.448C-33.36,60.448 -32.134,59.223 -32.134,57.619C-32.134,56.111 -33.36,54.79 -34.963,54.79C-36.473,54.79 -37.793,56.111 -37.793,57.619C-38.547,70.919 -17.324,72.145 -17.324,54.6C-17.324,49.887 -19.276,45.1 -22.109,40.439C-22.208,40.275 -22.615,39.683 -23.153,38.913L-15.769,24.513L-15.769,62.689C-15.769,64.095 -15.991,65.069 -16.433,65.617C-16.875,66.163 -17.252,66.514 -17.565,66.671C-17.93,66.878 -18.073,67.1 -17.994,67.335C-17.917,67.568 -17.773,67.686 -17.565,67.686C-16.994,67.686 -16.147,67.92 -15.027,68.388C-13.91,68.856 -12.465,69.923 -10.696,71.589C-8.978,73.306 -7.221,74.438 -5.426,74.986C-3.629,75.531 -2.106,75.805 -0.859,75.805C-0.286,75.805 0,75.597 0,75.18" style="fill:rgb(0,37,97);fill-rule:nonzero;"/>
            </g>
            <g transform="matrix(-0.849191,-0.528086,-0.528086,0.849191,73.3037,170.003)">
                <path d="M-9.658,-2.509L-3.639,-2.509L-0.846,2.967L-7.074,2.549L-9.658,-2.509Z" style="fill:rgb(0,37,97);fill-rule:nonzero;"/>
            </g>
            <g transform="matrix(0.882694,0.469948,0.469948,-0.882694,224.924,170.517)">
                <path d="M0.666,-2.424L6.907,-2.424L9.825,2.449L3.819,2.853L0.666,-2.424Z" style="fill:rgb(0,37,97);fill-rule:nonzero;"/>
            </g>
        </g>
    </g>
</svg>
