<?xml version="1.0" encoding="UTF-8" standalone="no"?>
<!DOCTYPE svg PUBLIC "-//W3C//DTD SVG 1.1//EN" "http://www.w3.org/Graphics/SVG/1.1/DTD/svg11.dtd">
<svg width="100%" height="100%" viewBox="0 0 2773 1949" version="1.1" xmlns="http://www.w3.org/2000/svg" xmlns:xlink="http://www.w3.org/1999/xlink" xml:space="preserve" xmlns:serif="http://www.serif.com/" style="fill-rule:evenodd;clip-rule:evenodd;stroke-linejoin:round;stroke-miterlimit:2;">
    <g transform="matrix(1,0,0,1,-307.225,-260.355)">
        <g transform="matrix(4.16667,0,0,4.16667,0,0)">
            <g id="Layer-1" serif:id="Layer 1">
                <g transform="matrix(1,0,0,1,276.233,278.287)">
                    <path d="M0,-198.747C0.811,-198.613 1.352,-197.936 1.625,-196.718C1.892,-194.282 1.588,-191.036 0.71,-186.975C-0.17,-182.914 -2.032,-178.957 -4.872,-175.099C-7.715,-171.242 -11.809,-167.921 -17.154,-165.148C-22.503,-162.376 -29.507,-160.988 -38.167,-160.988C-45.474,-160.988 -51.767,-161.358 -57.046,-162.105C-62.325,-162.846 -66.926,-163.761 -70.85,-164.845L-70.85,-37.763C-70.85,-35.731 -70.75,-33.228 -70.546,-30.252C-70.343,-27.275 -69.869,-24.263 -69.125,-21.216C-68.384,-18.173 -67.333,-15.296 -65.979,-12.587C-64.627,-9.884 -62.732,-7.785 -60.296,-6.294C-58.808,-5.35 -57.283,-4.569 -55.728,-3.961C-54.173,-3.351 -53.392,-2.573 -53.392,-1.625C-53.392,-0.544 -54.136,0 -55.625,0C-58.875,0 -62.802,-0.711 -67.4,-2.133C-72.001,-3.554 -76.606,-6.498 -81.204,-10.965C-85.806,-15.296 -89.563,-18.069 -92.473,-19.287C-95.382,-20.505 -97.581,-21.116 -99.069,-21.116C-99.477,-21.116 -99.813,-21.419 -100.084,-22.03C-100.357,-22.638 -100.017,-23.215 -99.069,-23.755C-98.125,-24.159 -97.107,-25.073 -96.023,-26.495C-94.942,-27.916 -94.401,-30.452 -94.401,-34.106L-94.401,-175.606C-97.922,-177.361 -101.676,-178.853 -105.667,-180.071C-109.661,-181.289 -114.903,-181.899 -121.399,-181.899C-128.303,-181.899 -133.986,-180.848 -138.454,-178.753C-142.918,-176.65 -146.305,-174.011 -148.604,-170.834C-150.907,-167.655 -152.258,-164.201 -152.665,-160.48C-153.069,-156.757 -152.732,-153.306 -151.647,-150.126C-150.566,-146.946 -148.841,-144.307 -146.472,-142.211C-144.106,-140.109 -141.297,-139.065 -138.046,-139.065C-134.53,-139.065 -131.824,-139.906 -129.928,-141.601C-128.033,-143.292 -126.782,-145.321 -126.171,-147.69C-125.561,-150.056 -125.497,-152.462 -125.967,-154.898C-126.444,-157.334 -127.289,-159.296 -128.507,-160.784C-129.047,-161.732 -129.114,-162.476 -128.707,-163.019C-128.17,-163.964 -127.559,-164.441 -126.882,-164.441L-125.053,-164.441C-120.725,-164.441 -117.208,-163.49 -114.499,-161.598C-111.792,-159.7 -109.931,-157.367 -108.917,-154.594C-107.898,-151.818 -107.698,-148.771 -108.306,-145.458C-108.917,-142.142 -110.405,-139.095 -112.774,-136.322C-115.143,-133.546 -118.356,-131.213 -122.414,-129.318C-126.475,-127.423 -131.417,-126.478 -137.236,-126.478C-145.087,-126.478 -151.514,-128.234 -156.522,-131.754C-161.531,-135.274 -165.118,-139.706 -167.28,-145.051C-169.446,-150.396 -170.086,-156.183 -169.209,-162.409C-168.332,-168.632 -165.996,-174.418 -162.205,-179.767C-158.418,-185.113 -153.069,-189.544 -146.168,-193.064C-139.265,-196.581 -130.809,-198.343 -120.792,-198.343C-114.295,-198.343 -108.072,-197.562 -102.113,-196.007C-96.16,-194.449 -89.934,-192.69 -83.437,-190.728C-76.94,-188.767 -69.906,-187.005 -62.325,-185.45C-54.747,-183.894 -46.084,-183.117 -36.338,-183.117C-31.873,-183.117 -27.986,-183.454 -24.666,-184.132C-21.352,-184.806 -18.409,-185.787 -15.836,-187.075C-13.267,-188.359 -10.898,-189.948 -8.729,-191.846C-6.567,-193.738 -4.401,-195.837 -2.232,-198.14C-1.829,-198.546 -1.084,-198.747 0,-198.747" style="fill:rgb(0,37,97);fill-rule:nonzero;"/>
                </g>
                <g transform="matrix(1,0,0,1,259.989,148.154)">
                    <path d="M0,81.408C2.299,81.408 4.498,80.324 6.597,78.161C8.696,75.996 10.488,73.086 11.979,69.432C13.464,65.775 14.648,61.481 15.529,56.539C16.411,51.6 16.851,46.288 16.851,40.602C16.851,35.056 16.411,29.811 15.529,24.869C14.648,19.931 13.464,15.633 11.979,11.979C10.488,8.325 8.696,5.416 6.597,3.25C4.498,1.085 2.299,0 0,0C-2.302,0 -4.464,1.085 -6.497,3.25C-8.525,5.416 -10.321,8.325 -11.875,11.979C-13.434,15.633 -14.652,19.931 -15.529,24.869C-16.414,29.811 -16.851,35.056 -16.851,40.602C-16.851,46.288 -16.414,51.6 -15.529,56.539C-14.652,61.481 -13.434,65.775 -11.875,69.432C-10.321,73.086 -8.525,75.996 -6.497,78.161C-4.464,80.324 -2.302,81.408 0,81.408M0,-10.961C5.549,-10.961 10.758,-9.606 15.633,-6.9C20.505,-4.191 24.766,-0.507 28.423,4.165C32.077,8.833 34.95,14.282 37.048,20.505C39.147,26.731 40.195,33.431 40.195,40.602C40.195,47.78 39.147,54.51 37.048,60.804C34.95,67.096 32.077,72.579 28.423,77.247C24.766,81.915 20.505,85.602 15.633,88.312C10.758,91.015 5.549,92.369 0,92.369C-5.552,92.369 -10.761,91.015 -15.633,88.312C-20.504,85.602 -24.766,81.915 -28.423,77.247C-32.077,72.579 -34.953,67.096 -37.048,60.804C-39.15,54.51 -40.195,47.78 -40.195,40.602C-40.195,33.431 -39.15,26.731 -37.048,20.505C-34.953,14.282 -32.077,8.833 -28.423,4.165C-24.766,-0.507 -20.504,-4.191 -15.633,-6.9C-10.761,-9.606 -5.552,-10.961 0,-10.961" style="fill:rgb(0,37,97);fill-rule:nonzero;"/>
                </g>
                <g transform="matrix(1,0,0,1,344.24,189.975)">
                    <path d="M0,-2.232C4.057,-2.232 7.511,-3.213 10.351,-5.175C13.193,-7.137 15.356,-9.54 16.847,-12.383C18.335,-15.226 19.183,-18.372 19.387,-21.822C19.59,-25.273 19.08,-28.419 17.862,-31.262C16.644,-34.105 14.615,-36.504 11.772,-38.47C8.933,-40.428 5.342,-41.413 1.014,-41.413L-7.715,-41.413L-7.715,-2.232L0,-2.232ZM41.413,22.737C43.441,24.228 44.896,26.495 45.777,29.538C46.655,32.584 46.655,35.661 45.777,38.777C44.896,41.887 42.968,44.63 39.991,46.999C37.012,49.365 32.614,50.549 26.794,50.549C22.463,50.549 19.046,49.738 16.543,48.113C14.038,46.492 12.079,44.426 10.658,41.924C9.236,39.418 8.152,36.608 7.408,33.498C6.664,30.385 5.916,27.305 5.175,24.262C4.431,21.216 3.45,18.372 2.232,15.733C1.014,13.094 -0.748,10.965 -3.047,9.34L-7.715,9.34L-7.715,37.559C-7.715,41.347 -7.178,43.919 -6.093,45.274C-5.009,46.625 -3.994,47.573 -3.047,48.113C-2.103,48.52 -1.762,49.028 -2.032,49.638C-2.306,50.246 -2.64,50.549 -3.047,50.549L-35.934,50.549C-36.341,50.549 -36.678,50.246 -36.949,49.638C-37.219,49.028 -36.882,48.52 -35.934,48.113C-34.99,47.573 -33.976,46.625 -32.888,45.274C-31.807,43.919 -31.266,41.347 -31.266,37.559L-31.266,-43.241C-31.266,-45.403 -31.843,-46.925 -32.991,-47.806C-34.142,-48.687 -35.123,-49.464 -35.934,-50.142C-36.745,-50.819 -37.052,-51.426 -36.849,-51.97C-36.645,-52.508 -36.341,-52.781 -35.934,-52.781L8.525,-52.781C15.559,-52.781 21.345,-51.426 25.883,-48.72C30.415,-46.011 33.865,-42.597 36.234,-38.47C38.603,-34.339 39.854,-29.807 39.991,-24.869C40.125,-19.924 39.281,-15.189 37.452,-10.658C35.627,-6.12 32.817,-2.095 29.03,1.422C25.239,4.942 20.568,7.311 15.022,8.529C15.426,9.476 15.866,10.457 16.34,11.472C16.814,12.486 17.254,13.604 17.662,14.822C19.417,19.83 21.519,23.244 23.955,25.073C26.391,26.901 28.756,27.812 31.059,27.812C32.684,27.812 34.135,27.409 35.423,26.595C36.708,25.784 37.556,24.839 37.962,23.755C38.366,22.807 39.043,22.333 39.991,22.333C40.398,22.333 40.869,22.47 41.413,22.737" style="fill:rgb(0,37,97);fill-rule:nonzero;"/>
                </g>
                <g transform="matrix(1,0,0,1,485.126,234.638)">
                    <path d="M0,-91.558C0.674,-89.526 1.655,-86.55 2.943,-82.625C4.228,-78.698 5.279,-75.314 6.09,-72.475C6.497,-70.983 6.394,-69.969 5.786,-69.429C5.176,-68.888 4.395,-68.618 3.45,-68.618C2.64,-68.618 1.825,-68.785 1.015,-69.125C0.204,-69.462 -0.34,-69.766 -0.61,-70.039C-1.421,-70.85 -2.269,-72.135 -3.146,-73.896C-4.027,-75.652 -5.349,-77.447 -7.107,-79.275C-8.865,-81.1 -11.201,-82.692 -14.107,-84.047C-17.021,-85.398 -20.911,-86.076 -25.783,-86.076L-29.03,-86.076L-29.03,-7.104C-29.03,-3.316 -28.492,-0.744 -27.408,0.611C-26.327,1.963 -25.31,2.91 -24.361,3.45C-23.417,3.858 -23.044,4.365 -23.247,4.975C-23.447,5.583 -23.824,5.886 -24.361,5.886L-57.046,5.886C-57.453,5.886 -57.793,5.583 -58.063,4.975C-58.334,4.365 -57.997,3.858 -57.046,3.45C-56.102,2.91 -55.087,1.963 -54.003,0.611C-52.921,-0.744 -52.377,-3.316 -52.377,-7.104L-52.377,-86.076L-55.424,-86.076C-60.296,-86.076 -64.223,-85.398 -67.196,-84.047C-70.176,-82.692 -72.545,-81.1 -74.304,-79.275C-76.062,-77.447 -77.383,-75.652 -78.261,-73.896C-79.142,-72.135 -79.986,-70.85 -80.8,-70.039C-81.07,-69.766 -81.611,-69.462 -82.422,-69.125C-83.236,-68.785 -84.047,-68.618 -84.858,-68.618C-85.809,-68.618 -86.553,-68.888 -87.093,-69.429C-87.631,-69.969 -87.701,-70.983 -87.293,-72.475C-86.89,-73.963 -86.416,-75.585 -85.875,-77.347C-85.335,-79.102 -84.791,-80.864 -84.25,-82.625C-83.71,-84.381 -83.169,-86.076 -82.625,-87.701C-82.085,-89.323 -81.681,-90.607 -81.408,-91.558C-80.733,-93.587 -80.123,-95.075 -79.583,-96.023C-79.042,-96.967 -78.094,-97.444 -76.739,-97.444L-4.468,-97.444C-3.25,-97.444 -2.369,-96.967 -1.828,-96.023C-1.288,-95.075 -0.681,-93.587 0,-91.558" style="fill:rgb(0,37,97);fill-rule:nonzero;"/>
                </g>
                <g transform="matrix(1,0,0,1,533.239,181.449)">
                    <path d="M0,14.819L23.752,22.534L12.383,-20.504L0,14.819ZM61.714,56.639C62.525,57.179 62.829,57.72 62.629,58.264C62.425,58.805 62.121,59.075 61.714,59.075L26.187,59.075C25.78,59.075 25.477,58.738 25.273,58.061C25.069,57.383 25.377,56.909 26.187,56.639C27.676,55.828 28.69,54.711 29.23,53.289C29.771,51.871 29.975,50.246 29.841,48.417C29.704,46.592 29.4,44.763 28.927,42.938C28.453,41.11 28.013,39.384 27.608,37.759L-4.265,27.405L-10.558,44.867C-11.102,46.896 -11.269,48.621 -11.064,50.042C-10.861,51.464 -10.527,52.611 -10.05,53.492C-9.576,54.373 -9.036,55.084 -8.425,55.625C-7.818,56.165 -7.381,56.502 -7.107,56.639C-6.43,57.046 -6.163,57.553 -6.293,58.164C-6.43,58.771 -6.7,59.075 -7.107,59.075L-33.701,59.075C-34.242,59.075 -34.582,58.805 -34.716,58.264C-34.85,57.72 -34.513,57.179 -33.701,56.639C-33.294,56.369 -32.688,56.032 -31.873,55.625C-31.062,55.217 -30.147,54.573 -29.134,53.696C-28.119,52.815 -27.038,51.564 -25.884,49.942C-24.735,48.317 -23.687,46.085 -22.736,43.242L4.872,-35.73C5.275,-37.622 5.075,-38.907 4.262,-39.587C3.45,-40.262 2.703,-40.939 2.029,-41.616C1.218,-42.294 0.911,-42.901 1.114,-43.445C1.318,-43.982 1.622,-44.256 2.029,-44.256L34.105,-44.256C34.643,-44.256 34.983,-43.982 35.12,-43.445C35.254,-42.901 34.916,-42.294 34.105,-41.616C33.021,-40.669 32.244,-39.821 31.77,-39.08C31.293,-38.333 31.396,-36.878 32.073,-34.716L52.578,43.242C53.522,46.085 54.474,48.317 55.421,49.942C56.365,51.564 57.246,52.815 58.061,53.696C58.871,54.573 59.582,55.217 60.192,55.625C60.8,56.032 61.308,56.369 61.714,56.639" style="fill:rgb(0,37,97);fill-rule:nonzero;"/>
                </g>
                <g transform="matrix(1,0,0,1,624.595,220.834)">
                    <path d="M0,-63.95C0,-60.293 1.385,-57.146 4.16,-54.507C6.934,-51.871 10.384,-49.465 14.515,-47.303C18.639,-45.134 23.07,-42.938 27.812,-40.702C32.547,-38.47 36.845,-35.831 40.702,-32.787C44.559,-29.741 47.636,-26.154 49.938,-22.027C52.237,-17.895 52.984,-12.79 52.17,-6.7C51.493,-1.014 49.972,3.624 47.603,7.207C45.233,10.791 42.29,13.667 38.773,15.833C35.253,17.998 31.292,19.49 26.897,20.301C22.496,21.112 17.795,21.519 12.786,21.519C4.668,21.519 -2.032,20.367 -7.312,18.069C-12.587,15.766 -16.618,12.923 -19.391,9.54C-22.163,6.156 -23.825,2.469 -24.362,-1.522C-24.903,-5.512 -24.532,-9.203 -23.248,-12.587C-21.963,-15.967 -19.831,-18.81 -16.852,-21.112C-13.875,-23.414 -10.354,-24.566 -6.294,-24.566C-1.559,-24.566 1.928,-23.718 4.16,-22.027C6.393,-20.335 7.714,-18.439 8.118,-16.344C8.525,-14.242 8.222,-12.313 7.204,-10.558C6.189,-8.796 4.734,-7.782 2.839,-7.512C2.299,-7.512 1.892,-7.715 1.621,-8.122C0.403,-9.607 -0.814,-10.354 -2.032,-10.354C-3.657,-10.354 -5.046,-9.34 -6.193,-7.308C-7.345,-5.279 -7.648,-3.077 -7.107,-0.711C-6.567,1.658 -4.909,3.857 -2.133,5.886C0.641,7.918 5.005,8.932 10.961,8.932C13.667,8.932 15.999,8.492 17.965,7.611C19.924,6.73 21.519,5.582 22.736,4.161C23.954,2.739 24.865,1.184 25.476,-0.508C26.083,-2.199 26.391,-3.858 26.391,-5.483C26.391,-10.354 25.172,-14.445 22.736,-17.765C20.301,-21.079 17.284,-23.955 13.7,-26.391C10.113,-28.827 6.189,-31.062 1.928,-33.091C-2.336,-35.12 -6.264,-37.285 -9.848,-39.588C-13.435,-41.887 -16.444,-44.56 -18.88,-47.606C-21.319,-50.653 -22.537,-54.407 -22.537,-58.875C-22.537,-64.283 -21.419,-68.718 -19.187,-72.172C-16.955,-75.622 -14.078,-78.328 -10.558,-80.29C-7.041,-82.252 -3.08,-83.607 1.317,-84.351C5.716,-85.092 10.15,-85.469 14.614,-85.469C21.111,-85.469 26.594,-84.892 31.059,-83.741C35.526,-82.589 39.077,-81.101 41.716,-79.276C44.355,-77.447 46.251,-75.385 47.402,-73.083C48.55,-70.781 49.127,-68.414 49.127,-65.979C49.261,-61.918 48.076,-58.264 45.573,-55.017C43.067,-51.767 39.991,-50.142 36.337,-50.142C35.526,-50.142 34.408,-50.312 32.987,-50.653C31.565,-50.987 30.718,-51.631 30.451,-52.581C30.314,-53.392 30.518,-54.066 31.059,-54.61C33.087,-56.909 34.238,-59.208 34.509,-61.511C34.779,-63.813 34.238,-65.879 32.887,-67.704C31.532,-69.533 29.434,-71.017 26.594,-72.172C23.751,-73.32 20.164,-73.897 15.833,-73.897C12.586,-73.897 9.946,-73.52 7.914,-72.779C5.886,-72.035 4.294,-71.154 3.146,-70.139C1.995,-69.125 1.181,-68.041 0.71,-66.893C0.233,-65.742 0,-64.761 0,-63.95" style="fill:rgb(0,37,97);fill-rule:nonzero;"/>
                </g>
                <g transform="matrix(1,0,0,1,453.576,406.96)">
                    <path d="M0,-103.333C0.403,-103.333 0.711,-103.094 0.916,-102.622C1.114,-102.144 0.81,-101.569 0,-100.896C-0.68,-100.217 -1.626,-99.437 -2.843,-98.562C-4.06,-97.682 -4.671,-96.154 -4.671,-93.994L-4.671,-29.843C-4.671,-27.946 -4.975,-25.343 -5.583,-22.024C-6.191,-18.707 -7.685,-15.427 -10.049,-12.181C-12.42,-8.932 -15.937,-6.092 -20.604,-3.652C-25.274,-1.216 -31.739,0 -39.995,0C-48.926,0 -56.03,-1.117 -61.309,-3.348C-66.588,-5.583 -70.545,-8.292 -73.186,-11.47C-75.824,-14.651 -77.519,-17.932 -78.26,-21.317C-79.005,-24.697 -79.377,-27.54 -79.377,-29.843L-79.377,-93.994C-79.377,-96.154 -79.955,-97.682 -81.103,-98.562C-82.254,-99.437 -83.235,-100.217 -84.048,-100.896C-84.725,-101.569 -84.96,-102.144 -84.759,-102.622C-84.554,-103.094 -84.322,-103.333 -84.048,-103.333L-51.161,-103.333C-50.618,-103.333 -50.283,-103.094 -50.146,-102.622C-50.013,-102.144 -50.348,-101.569 -51.161,-100.896C-51.971,-100.217 -52.955,-99.437 -54.103,-98.562C-55.254,-97.682 -55.828,-96.154 -55.828,-93.994L-55.828,-29.843C-55.828,-24.97 -55.049,-21.215 -53.495,-18.574C-51.94,-15.936 -50.112,-14.006 -48.014,-12.789C-45.916,-11.572 -43.852,-10.862 -41.819,-10.657C-39.793,-10.455 -38.368,-10.353 -37.558,-10.353C-33.229,-10.353 -29.812,-11.033 -27.305,-12.386C-24.803,-13.735 -22.872,-15.427 -21.52,-17.46C-20.166,-19.489 -19.288,-21.622 -18.878,-23.853C-18.475,-26.088 -18.273,-28.083 -18.273,-29.843L-18.273,-93.994C-18.273,-96.154 -18.851,-97.682 -19.999,-98.562C-21.147,-99.437 -22.131,-100.217 -22.94,-100.896C-23.621,-101.569 -23.888,-102.144 -23.754,-102.622C-23.621,-103.094 -23.348,-103.333 -22.94,-103.333L0,-103.333Z" style="fill:rgb(0,37,97);fill-rule:nonzero;"/>
                </g>
                <g transform="matrix(1,0,0,1,548.178,306.263)">
                    <path d="M0,98.263C0.943,98.666 1.285,99.205 1.015,99.886C0.741,100.562 0.403,100.897 0,100.897L-22.94,100.897C-23.348,100.897 -23.689,100.562 -23.955,99.886C-24.229,99.205 -23.887,98.666 -22.94,98.263C-22.131,97.856 -21.253,97.074 -20.3,95.925C-19.356,94.774 -18.745,92.783 -18.475,89.936C-18.475,86.01 -19.626,81.92 -21.926,77.656C-24.229,73.395 -27.103,69.199 -30.554,65.068C-34.005,60.944 -37.797,56.95 -41.925,53.092C-46.053,49.234 -49.975,45.786 -53.696,42.739C-57.421,39.691 -60.7,37.121 -63.543,35.023C-66.387,32.929 -68.143,31.541 -68.822,30.862L-68.822,87.704C-68.822,91.493 -68.279,94.064 -67.196,95.42C-66.116,96.77 -65.102,97.719 -64.151,98.263C-63.205,98.666 -62.867,99.205 -63.137,99.886C-63.41,100.562 -63.745,100.897 -64.151,100.897L-87.093,100.897C-87.496,100.897 -87.837,100.562 -88.107,99.886C-88.377,99.205 -88.043,98.666 -87.093,98.263C-86.146,97.719 -85.131,96.77 -84.048,95.42C-82.965,94.064 -82.422,91.493 -82.422,87.704L-82.422,6.909C-82.422,4.742 -82.999,3.222 -84.147,2.341C-85.299,1.462 -86.279,0.684 -87.093,0.003C-88.313,-1.213 -88.511,-1.954 -87.701,-2.227C-86.891,-2.498 -85.941,-2.634 -84.858,-2.634L-57.045,-2.634C-58.265,1.699 -57.522,5.993 -54.813,10.258C-52.107,14.519 -48.554,18.783 -44.156,23.043C-39.759,27.308 -35.122,31.47 -30.249,35.533C-25.377,39.591 -21.386,43.586 -18.273,47.508L-18.273,6.909C-18.273,4.742 -18.851,3.222 -19.999,2.341C-21.146,1.462 -22.131,0.684 -22.94,0.003C-24.294,-1.213 -24.533,-1.954 -23.651,-2.227C-22.773,-2.498 -21.793,-2.634 -20.709,-2.634L0,-2.634C0.403,-2.634 0.711,-2.361 0.912,-1.821C1.114,-1.281 0.811,-0.67 0,0.003C-0.812,0.684 -1.794,1.462 -2.945,2.341C-4.097,3.222 -4.671,4.742 -4.671,6.909L-4.671,87.704C-4.671,91.493 -4.131,94.064 -3.048,95.42C-1.965,96.77 -0.949,97.719 0,98.263" style="fill:rgb(0,37,97);fill-rule:nonzero;"/>
                </g>
                <g transform="matrix(1,0,0,1,595.681,312.761)">
                    <path d="M0,85.268C4.466,85.268 8.289,83.235 11.467,79.179C14.648,75.117 17.084,70.008 18.775,63.847C20.467,57.694 21.345,51.028 21.417,43.852C21.481,36.68 20.706,30.017 19.083,23.857C17.457,17.703 14.884,12.587 11.368,8.529C7.849,4.472 3.379,2.44 -2.033,2.44L-9.946,2.44L-9.946,85.268L0,85.268ZM4.059,-9.133C13.261,-9.133 20.771,-6.561 26.594,-1.419C32.409,3.728 36.707,10.124 39.485,17.768C42.256,25.412 43.575,33.701 43.445,42.632C43.309,51.568 41.819,59.857 38.977,67.503C36.133,75.151 32.074,81.543 26.799,86.69C21.52,91.831 15.089,94.401 7.51,94.401L-38.167,94.401C-38.573,94.401 -38.911,94.063 -39.182,93.386C-39.451,92.71 -39.113,92.17 -38.167,91.763C-37.224,91.22 -36.209,90.274 -35.119,88.92C-34.039,87.568 -33.499,84.995 -33.499,81.208L-33.499,0.41C-33.499,-1.756 -34.077,-3.277 -35.225,-4.159C-36.376,-5.037 -37.356,-5.812 -38.167,-6.493C-38.977,-7.169 -39.284,-7.777 -39.082,-8.32C-38.878,-8.86 -38.573,-9.133 -38.167,-9.133L4.059,-9.133Z" style="fill:rgb(0,37,97);fill-rule:nonzero;"/>
                </g>
                <g transform="matrix(1,0,0,1,688.453,314.594)">
                    <path d="M0,81.403C2.3,81.403 4.497,80.32 6.599,78.157C8.696,75.995 10.486,73.08 11.979,69.427C13.463,65.774 14.648,61.479 15.53,56.535C16.411,51.594 16.853,46.285 16.853,40.602C16.853,35.053 16.411,29.808 15.53,24.864C14.648,19.926 13.463,15.629 11.979,11.975C10.486,8.32 8.696,5.412 6.599,3.246C4.497,1.083 2.3,-0 0,-0C-2.303,-0 -4.466,1.083 -6.495,3.246C-8.524,5.412 -10.322,8.32 -11.877,11.975C-13.435,15.629 -14.651,19.926 -15.529,24.864C-16.414,29.808 -16.852,35.053 -16.852,40.602C-16.852,46.285 -16.414,51.594 -15.529,56.535C-14.651,61.479 -13.435,65.774 -11.877,69.427C-10.322,73.08 -8.524,75.995 -6.495,78.157C-4.466,80.32 -2.303,81.403 0,81.403M0,-10.965C5.55,-10.965 10.76,-9.613 15.633,-6.906C20.505,-4.197 24.766,-0.51 28.422,4.161C32.078,8.829 34.951,14.275 37.05,20.501C39.147,26.726 40.196,33.426 40.196,40.602C40.196,47.774 39.147,54.506 37.05,60.799C34.951,67.093 32.078,72.574 28.422,77.242C24.766,81.909 20.505,85.599 15.633,88.308C10.76,91.015 5.55,92.368 0,92.368C-5.552,92.368 -10.756,91.015 -15.632,88.308C-20.504,85.599 -24.766,81.909 -28.421,77.242C-32.077,72.574 -34.951,67.093 -37.049,60.799C-39.15,54.506 -40.195,47.774 -40.195,40.602C-40.195,33.426 -39.15,26.726 -37.049,20.501C-34.951,14.275 -32.077,8.829 -28.421,4.161C-24.766,-0.51 -20.504,-4.197 -15.632,-6.906C-10.756,-9.613 -5.552,-10.965 0,-10.965" style="fill:rgb(0,37,97);fill-rule:nonzero;"/>
                </g>
                <g transform="matrix(1,0,0,1,372.883,249.934)">
                    <path d="M0,190.826C-1.559,190.218 -3.079,189.438 -4.568,188.492C-7.005,187.002 -8.932,184.908 -10.354,182.201C-11.775,179.492 -12.861,176.618 -13.603,173.57C-14.348,170.526 -14.823,167.513 -15.021,164.54C-15.226,161.56 -15.329,159.055 -15.329,157.026L-15.329,10.452C-15.329,8.289 -14.754,6.769 -13.603,5.887C-12.455,5.006 -11.471,4.23 -10.658,3.55C-9.848,2.873 -9.543,2.265 -9.749,1.722C-9.947,1.185 -10.254,0.912 -10.658,0.912L-43.347,0.912C-43.887,0.912 -44.225,1.185 -44.358,1.722C-44.495,2.265 -44.157,2.873 -43.347,3.55C-42.667,4.23 -41.72,5.006 -40.504,5.887C-39.284,6.769 -38.672,8.289 -38.672,10.452L-38.672,16.343C-38.672,18.236 -39.113,20.603 -39.995,23.447C-40.876,26.289 -41.956,29.303 -43.241,32.481C-44.529,35.662 -45.95,38.843 -47.505,42.021C-49.015,45.099 -65.194,80.433 -67.651,85.223C-88.801,57.927 -106.046,27.14 -108.025,4.643C-107.84,3.742 -107.649,2.966 -107.447,2.357C-107.7,2.436 -107.957,2.569 -108.206,2.638C-110.44,3.249 -112.641,3.55 -114.804,3.55C-117.646,3.55 -120.387,3.143 -123.025,2.334C-125.666,1.52 -128.338,0.68 -131.044,-0.205C-133.754,-1.083 -136.494,-1.931 -139.265,-2.74C-142.043,-3.557 -144.849,-3.96 -147.691,-3.96L-148.299,-3.96C-156.288,-3.96 -162.175,-2.235 -165.961,1.216C-169.754,4.667 -171.849,8.494 -172.255,12.687C-172.662,16.883 -171.544,20.706 -168.907,24.157C-166.266,27.605 -162.582,29.33 -157.843,29.33C-154.73,29.33 -151.686,28.592 -148.706,27.099C-151.009,26.426 -152.667,24.967 -153.681,22.736C-154.696,20.501 -155,18.167 -154.593,15.731C-154.187,13.295 -152.97,11.095 -150.941,9.133C-148.911,7.172 -146.068,6.123 -142.412,5.986C-138.76,5.986 -135.849,7.001 -133.686,9.034C-131.519,11.064 -129.828,13.637 -128.608,16.746C-127.392,19.862 -126.613,23.313 -126.274,27.099C-125.936,30.888 -125.765,34.544 -125.765,38.064L-125.765,160.681C-125.765,164.335 -126.309,166.87 -127.392,168.292C-128.475,169.713 -129.49,170.629 -130.436,171.035C-131.386,171.571 -131.724,172.149 -131.451,172.761C-131.181,173.369 -130.839,173.673 -130.436,173.673L-107.495,173.673C-107.088,173.673 -106.754,173.369 -106.48,172.761C-106.21,172.149 -106.552,171.571 -107.495,171.035C-108.445,170.629 -109.46,169.713 -110.54,168.292C-111.626,166.87 -112.166,164.335 -112.166,160.681C-112.166,160.681 -112.6,96.608 -111.148,49.548C-92.478,79.757 -59.884,114.065 -59.884,140.137C-59.884,163.193 -80.738,162.947 -88.829,154.852L-88.586,154.852C-84.417,154.852 -81.226,151.665 -81.226,147.496C-81.226,143.57 -84.417,140.137 -88.586,140.137C-92.509,140.137 -95.943,143.57 -95.943,147.496C-97.904,182.082 -42.715,185.269 -42.715,139.647C-42.715,127.391 -47.795,114.94 -55.159,102.82C-55.418,102.393 -56.474,100.856 -57.875,98.853L-38.672,61.408L-38.672,160.681C-38.672,164.335 -39.25,166.87 -40.398,168.292C-41.549,169.713 -42.53,170.629 -43.347,171.035C-44.293,171.571 -44.662,172.149 -44.46,172.761C-44.256,173.369 -43.887,173.673 -43.347,173.673C-41.857,173.673 -39.657,174.281 -36.746,175.501C-33.837,176.718 -30.083,179.492 -25.48,183.821C-21.011,188.291 -16.442,191.232 -11.775,192.653C-7.107,194.075 -3.147,194.786 0.099,194.786C1.589,194.786 2.333,194.242 2.333,193.163C2.333,192.213 1.555,191.437 0,190.826" style="fill:rgb(0,37,97);fill-rule:nonzero;"/>
                </g>
                <g transform="matrix(1,0,0,1,716.643,110.219)">
                    <path d="M0,3.898C1.076,3.898 1.947,3.027 1.947,1.947C1.947,0.871 1.076,0 0,0L-414.064,0C-415.14,0 -416.015,0.871 -416.015,1.947C-416.015,3.027 -415.14,3.898 -414.064,3.898L0,3.898Z" style="fill:rgb(184,90,29);"/>
                </g>
                <g transform="matrix(1,0,0,1,416.252,54.8887)">
                    <path d="M0,58.476C-9.605,58.736 -34.903,58.958 -34.9,58.958C-40.203,58.719 -56.765,59.307 -73.08,54.215C-90.793,48.684 -107.69,37.917 -105.335,23.86C-101.201,-0.831 -65.252,5.832 -72.701,22.394C-74.655,26.74 -80.188,28.914 -83.458,26.973C-83.543,26.925 -83.57,26.85 -83.464,26.822C-82.706,26.631 -81.11,25.842 -80.423,24.061C-76.025,12.68 -93.811,9.994 -99.134,18.451C-104,26.395 -102.356,33.024 -97.265,38.395C-86.423,49.831 -59.942,55.558 -47.382,56.129C-54.738,53.207 -59.539,47.904 -57.147,38.446C-52.945,21.861 -27.14,25.89 -31.821,38.627C-33.154,42.236 -37.487,44.3 -40.227,42.919C-40.299,42.885 -40.33,42.827 -40.241,42.8C-39.643,42.601 -38.399,41.877 -37.944,40.404C-35.05,30.984 -49.528,29.826 -53.337,36.943C-62.108,53.303 -37.319,55.411 -25.518,55.49C-20.17,55.531 -8.19,54.612 -5.242,50.214C-5.19,50.136 -5.167,50.163 -5.108,50.218C-3.017,52.343 6.013,56.05 11.122,56.05L4.5,58.548C2.781,58.462 1.257,58.442 0,58.476" style="fill:rgb(184,90,29);"/>
                </g>
                <g transform="matrix(1,0,0,1,313.749,127.71)">
                    <path d="M0,-13.593C0,-13.593 -11.18,-13.757 -13.121,-7.091C-15.062,-0.424 -10.134,0.461 -7.941,-0.253C-5.75,-0.971 -4.657,7.793 -14.788,5.877C-24.923,3.96 -29.577,-21.386 0,-17.491L0,-13.593Z" style="fill:rgb(184,90,29);"/>
                </g>
                <g transform="matrix(1,0,0,1,517.935,276.402)">
                    <path d="M0,3.707C-1.021,3.707 -1.852,2.88 -1.852,1.852C-1.852,0.83 -1.021,0 0,0L210.303,0C211.324,0 212.157,0.83 212.157,1.852C212.157,2.88 211.324,3.707 210.303,3.707L0,3.707Z" style="fill:rgb(184,90,29);"/>
                </g>
                <g transform="matrix(1,0,0,1,620.149,223.791)">
                    <path d="M0,55.603C9.133,55.849 33.188,56.061 33.185,56.061C38.229,55.835 53.977,56.392 69.489,51.55C86.334,46.292 102.4,36.055 100.159,22.685C96.229,-0.789 62.047,5.545 69.13,21.294C70.985,25.425 76.248,27.492 79.357,25.647C79.436,25.603 79.463,25.531 79.364,25.503C78.643,25.322 77.122,24.574 76.47,22.879C72.291,12.055 89.201,9.502 94.265,17.546C98.892,25.097 97.326,31.401 92.484,36.509C82.176,47.382 56.997,52.829 45.055,53.372C52.049,50.594 56.614,45.55 54.342,36.557C50.345,20.785 25.805,24.615 30.26,36.728C31.524,40.159 35.645,42.124 38.252,40.811C38.32,40.777 38.348,40.723 38.266,40.695C37.695,40.507 36.513,39.817 36.082,38.419C33.328,29.464 47.095,28.36 50.717,35.125C59.058,50.686 35.484,52.688 24.264,52.764C19.179,52.801 7.79,51.926 4.985,47.748C4.937,47.672 4.91,47.7 4.855,47.751C2.87,49.77 -5.717,53.296 -10.575,53.296L-4.281,55.671C-2.645,55.589 -1.196,55.569 0,55.603" style="fill:rgb(184,90,29);"/>
                </g>
                <g transform="matrix(1,0,0,1,717.616,293.032)">
                    <path d="M0,-12.923C0,-12.923 10.63,-13.08 12.475,-6.738C14.323,-0.4 9.636,0.44 7.551,-0.239C5.467,-0.923 4.429,7.411 14.063,5.59C23.696,3.765 28.124,-20.334 0,-16.63L0,-12.923Z" style="fill:rgb(184,90,29);"/>
                </g>
                <g transform="matrix(1,0,0,1,138.673,332.844)">
                    <path d="M0,45.56C2.385,45.56 4.428,44.477 6.13,42.307C7.828,40.134 9.13,37.407 10.035,34.114C10.938,30.827 11.405,27.266 11.443,23.429C11.477,19.598 11.063,16.035 10.196,12.745C9.328,9.457 7.954,6.727 6.072,4.557C4.192,2.384 1.804,1.301 -1.083,1.301L-5.317,1.301L-5.317,45.56L0,45.56ZM2.169,-4.883C7.086,-4.883 11.098,-3.506 14.207,-0.759C17.316,1.992 19.613,5.408 21.099,9.492C22.579,13.578 23.282,18.009 23.214,22.78C23.139,27.549 22.346,31.981 20.826,36.068C19.305,40.155 17.139,43.568 14.316,46.319C11.498,49.066 8.06,50.443 4.015,50.443L-20.392,50.443C-20.611,50.443 -20.792,50.258 -20.936,49.899C-21.079,49.534 -20.901,49.247 -20.392,49.032C-19.886,48.741 -19.347,48.232 -18.766,47.511C-18.188,46.787 -17.898,45.413 -17.898,43.39L-17.898,0.214C-17.898,-0.937 -18.205,-1.753 -18.82,-2.222C-19.436,-2.693 -19.958,-3.107 -20.392,-3.472C-20.826,-3.832 -20.99,-4.159 -20.881,-4.45C-20.771,-4.737 -20.611,-4.883 -20.392,-4.883L2.169,-4.883Z" style="fill:rgb(0,37,97);fill-rule:nonzero;"/>
                </g>
                <g transform="matrix(1,0,0,1,188.244,333.819)">
                    <path d="M0,43.5C1.227,43.5 2.402,42.919 3.523,41.765C4.644,40.606 5.604,39.052 6.4,37.101C7.192,35.149 7.828,32.854 8.299,30.209C8.764,27.574 9.003,24.734 9.003,21.697C9.003,18.731 8.764,15.933 8.299,13.288C7.828,10.65 7.192,8.354 6.4,6.403C5.604,4.449 4.644,2.895 3.523,1.735C2.402,0.581 1.227,0.003 0,0.003C-1.23,0.003 -2.385,0.581 -3.472,1.735C-4.555,2.895 -5.515,4.449 -6.345,6.403C-7.179,8.354 -7.828,10.65 -8.3,13.288C-8.768,15.933 -9.003,18.731 -9.003,21.697C-9.003,24.734 -8.768,27.574 -8.3,30.209C-7.828,32.854 -7.179,35.149 -6.345,37.101C-5.515,39.052 -4.555,40.606 -3.472,41.765C-2.385,42.919 -1.23,43.5 0,43.5M0,-5.856C2.962,-5.856 5.75,-5.132 8.351,-3.687C10.955,-2.241 13.233,-0.27 15.185,2.225C17.139,4.719 18.673,7.633 19.797,10.958C20.915,14.282 21.479,17.863 21.479,21.697C21.479,25.527 20.915,29.125 19.797,32.487C18.673,35.854 17.139,38.781 15.185,41.276C13.233,43.771 10.955,45.738 8.351,47.188C5.75,48.633 2.962,49.356 0,49.356C-2.966,49.356 -5.75,48.633 -8.351,47.188C-10.955,45.738 -13.233,43.771 -15.185,41.276C-17.139,38.781 -18.677,35.854 -19.797,32.487C-20.918,29.125 -21.479,25.527 -21.479,21.697C-21.479,17.863 -20.918,14.282 -19.797,10.958C-18.677,7.633 -17.139,4.719 -15.185,2.225C-13.233,-0.27 -10.955,-2.241 -8.351,-3.687C-5.75,-5.132 -2.966,-5.856 0,-5.856" style="fill:rgb(0,37,97);fill-rule:nonzero;"/>
                </g>
                <g transform="matrix(1,0,0,1,164.634,278.135)">
                    <path d="M0,35.037C-20.846,36.058 -51.4,35.632 -64.856,20.116C-67.747,17.584 -71.871,14.471 -76.326,12.759C-81.742,10.682 -85.976,13.043 -88.412,13.785C-92.775,15.12 -90.917,8.967 -86.56,7.487C-80.43,5.403 -73.931,8.652 -68.799,13.33C-69.51,10.391 -69.165,7.091 -67.483,4.777C-63.687,-0.423 -57.069,-1.021 -53.259,1.88C-46.931,6.698 -50.775,16.419 -56.847,14.177C-56.908,14.157 -56.922,14.044 -56.857,14.013C-52.661,11.861 -55.203,2.796 -61.473,4.774C-64.487,5.724 -67.097,9.404 -64.805,14.471C-61.593,21.555 -53.18,25.966 -42.663,28.558C-44.061,27.359 -45.202,25.904 -45.974,24.154C-47.833,19.945 -44.566,14.406 -42.591,18.523C-41.491,20.82 -40.36,25.535 -35.163,28.108C-31.592,29.882 -27.461,30.817 -23.973,31.32C-15.834,31.9 -7.5,31.846 0.038,31.419L0,35.037Z" style="fill:rgb(184,90,29);"/>
                </g>
                <g transform="matrix(1,0,0,1,150.153,432.07)">
                    <path d="M0,-35.038C20.847,-36.059 51.4,-35.632 64.856,-20.116C67.747,-17.584 71.871,-14.472 76.327,-12.76C81.742,-10.683 85.976,-13.043 88.412,-13.785C92.775,-15.121 90.917,-8.967 86.56,-7.487C80.43,-5.406 73.931,-8.652 68.799,-13.33C69.51,-10.392 69.165,-7.091 67.483,-4.777C63.688,0.423 57.069,1.021 53.259,-1.88C46.931,-6.698 50.775,-16.419 56.847,-14.178C56.908,-14.157 56.922,-14.044 56.857,-14.014C52.661,-11.861 55.203,-2.796 61.473,-4.774C64.487,-5.725 67.098,-9.404 64.805,-14.472C61.593,-21.555 53.181,-25.966 42.664,-28.559C44.061,-27.36 45.202,-25.904 45.974,-24.155C47.833,-19.945 44.566,-14.406 42.592,-18.524C41.491,-20.82 40.36,-25.535 35.164,-28.108C31.593,-29.882 27.461,-30.817 23.973,-31.32C15.834,-31.901 7.5,-31.847 -0.037,-31.419L0,-35.038Z" style="fill:rgb(184,90,29);"/>
                </g>
                <g transform="matrix(1,0,0,1,211.549,309.569)">
                    <path d="M0,3.417L-99.313,3.417C-100.258,3.417 -101.021,2.652 -101.021,1.709C-101.021,0.765 -100.258,0 -99.313,0L0,0C0.944,0 1.708,0.765 1.708,1.709C1.708,2.652 0.944,3.417 0,3.417" style="fill:rgb(184,90,29);fill-rule:nonzero;"/>
                </g>
                <g transform="matrix(1,0,0,1,204.225,396.99)">
                    <path d="M0,3.417L-91.989,3.417C-92.933,3.417 -93.697,2.652 -93.697,1.708C-93.697,0.764 -92.933,0 -91.989,0L0,0C0.944,0 1.708,0.764 1.708,1.708C1.708,2.652 0.944,3.417 0,3.417" style="fill:rgb(184,90,29);fill-rule:nonzero;"/>
                </g>
                <g transform="matrix(1,0,0,1,204.702,475.724)">
                    <path d="M0,7.055C0.236,10.523 -2.214,14.705 -7.107,15.853C-11.002,16.766 -13.62,16.226 -13.62,16.226C-14.255,16.698 -14.576,16.933 -15.219,17.409C-15.369,17.487 -15.485,17.439 -15.489,17.32C-15.526,14.48 -15.636,12.98 -15.882,9.962C-15.889,9.88 -15.896,9.758 -15.902,9.676C-15.926,9.385 -15.909,9.088 -15.639,9.02C-15.065,8.876 -12.332,12.406 -8.437,11.48C-6.831,11.101 -4.89,10.379 -5.002,8.664C-5.272,4.636 -16.411,7.379 -16.944,-0.219C-17.3,-5.287 -13.89,-7.956 -9.831,-8.905C-7.873,-9.367 -6.297,-9.1 -4.992,-9.233C-4.353,-9.688 -4.032,-9.914 -3.39,-10.364C-3.236,-10.432 -3.123,-10.382 -3.12,-10.231C-3.106,-7.928 -3.044,-6.732 -2.891,-4.309C-2.856,-3.784 -3.068,-3.486 -3.26,-3.445C-3.376,-3.422 -3.496,-3.476 -3.578,-3.541C-4.746,-4.692 -7.042,-4.908 -8.573,-4.552C-10.527,-4.101 -11.966,-3.233 -11.85,-1.559C-11.563,2.603 -0.509,-0.37 0,7.055" style="fill:rgb(0,37,97);fill-rule:nonzero;"/>
                </g>
                <g transform="matrix(1,0,0,1,225.153,466.159)">
                    <path d="M0,17.378C0.349,19.367 0.762,19.172 0.345,19.398C-5.327,20.371 -8.166,20.908 -13.859,22.069C-13.975,22.09 -14.087,21.96 -14.016,21.83C-13.661,20.963 -13.486,20.525 -13.151,19.644C-13.428,11.669 -14.224,7.107 -14.443,-0.82C-14.72,-1.288 -14.856,-1.52 -15.123,-1.981C-15.202,-2.043 -15.126,-2.177 -15.01,-2.2C-9.369,-3.304 -6.546,-3.807 -0.905,-4.712C-0.485,-4.626 -0.936,-4.684 -1.168,-2.549C-1.292,-1.429 -1.483,-0.492 -1.36,0.205C-1.329,0.39 -1.459,0.547 -1.616,0.492C-2.354,0.369 -2.908,0.352 -4.049,0.495C-4.808,0.591 -5.812,0.755 -7.302,1.063C-8.067,1.199 -8.45,1.268 -9.215,1.407C-9.12,3.208 -9.055,4.124 -8.921,5.959C-6.666,5.542 -4.609,5.139 -3.844,5.009C-3.54,4.954 -3.062,4.585 -2.945,4.565C-2.757,4.534 -2.634,4.637 -2.624,4.801C-2.621,4.831 -2.621,4.849 -2.617,4.883C-3.242,8.628 -3.369,8.908 -3.43,9.625C-3.464,9.714 -3.499,9.759 -3.574,9.773C-3.687,9.793 -3.847,9.741 -4.042,9.693C-4.742,9.649 -5.542,9.782 -8.59,10.354C-8.409,12.766 -8.316,13.975 -8.193,16.336C-7.435,16.192 -7.052,16.121 -6.294,15.981C-5.002,15.741 -4.356,15.622 -3.065,15.393C-1.927,15.109 -1.401,14.939 -0.693,14.528C-0.543,14.464 -0.403,14.532 -0.417,14.724C-0.464,15.444 -0.194,16.272 0,17.378" style="fill:rgb(0,37,97);fill-rule:nonzero;"/>
                </g>
                <g transform="matrix(1,0,0,1,249.473,483.947)">
                    <path d="M0,-25.695C-0.27,-25.128 -0.407,-24.841 -0.67,-24.267C-0.612,-21.083 -0.52,-19.439 -0.342,-16.152C-0.232,-14.17 -0.174,-13.175 -0.068,-11.197C0.311,-4.152 -4.233,-1.018 -8.395,-0.451C-12.783,0.15 -17.013,-1.78 -17.474,-8.898C-17.627,-11.502 -17.72,-12.817 -17.867,-15.414C-18.034,-18.124 -18.113,-19.476 -18.178,-22.093C-18.465,-22.603 -18.608,-22.856 -18.892,-23.358C-18.93,-23.429 -18.854,-23.518 -18.779,-23.529C-16.203,-23.905 -14.915,-24.083 -12.342,-24.418C-12.226,-24.431 -12.109,-24.332 -12.185,-24.206C-12.543,-23.368 -12.718,-22.945 -13.063,-22.093C-12.98,-19.166 -12.885,-17.655 -12.697,-14.634C-12.643,-13.808 -12.619,-13.394 -12.564,-12.567C-12.314,-8.666 -11.993,-4.64 -8.508,-5.112C-5.023,-5.584 -5.061,-9.626 -5.289,-13.514C-5.34,-14.338 -5.364,-14.748 -5.412,-15.571C-5.583,-18.547 -5.668,-20.033 -5.747,-22.924C-6.15,-23.714 -6.352,-24.103 -6.742,-24.879C-6.782,-24.991 -6.708,-25.114 -6.554,-25.132C-3.994,-25.432 -2.713,-25.572 -0.154,-25.836C-0.041,-25.845 0.038,-25.777 0,-25.695" style="fill:rgb(0,37,97);fill-rule:nonzero;"/>
                </g>
                <g transform="matrix(1,0,0,1,281.593,468.216)">
                    <path d="M0,-0.356C-0.14,-4.695 -2.539,-7.524 -6.437,-7.339C-6.301,-1.62 -6.103,1.353 -5.973,7.069C-2.074,6.847 0.137,3.946 0,-0.356M5.054,-0.875C5.269,6.792 0.848,11.139 -7.804,11.682C-8.061,11.696 -8.19,11.706 -8.446,11.719C-9.355,11.778 -10.903,11.883 -10.941,11.887C-11.242,11.908 -11.395,11.917 -11.696,11.942C-11.846,11.952 -11.921,11.842 -11.85,11.685C-11.487,10.855 -11.31,10.442 -10.961,9.605C-11.081,1.814 -11.494,-2.388 -11.583,-10.155C-11.867,-10.681 -12.007,-10.945 -12.287,-11.467C-12.325,-11.543 -12.246,-11.662 -12.171,-11.669C-10.931,-11.741 -10.309,-11.775 -9.065,-11.836C-8.761,-11.853 -8.607,-11.86 -8.299,-11.874C0.513,-12.308 4.842,-8.348 5.054,-0.875" style="fill:rgb(0,37,97);fill-rule:nonzero;"/>
                </g>
                <g transform="matrix(1,0,0,1,306.995,457.829)">
                    <path d="M0,19.192C0.291,21.184 0.718,21.078 0.301,21.228C-5.375,21.16 -8.21,21.171 -13.873,21.28C-13.985,21.28 -14.098,21.129 -14.022,21.013C-13.657,20.227 -13.476,19.831 -13.117,19.038C-13.165,11.261 -13.428,7.165 -13.456,-0.588C-13.715,-1.098 -13.849,-1.347 -14.108,-1.853C-14.183,-1.928 -14.108,-2.044 -13.992,-2.047C-8.351,-2.088 -5.532,-2.072 0.109,-1.955C0.53,-1.794 0.096,-1.914 -0.198,0.112C-0.352,1.178 -0.581,2.043 -0.492,2.722C-0.468,2.907 -0.604,3.03 -0.758,2.948C-1.486,2.706 -2.036,2.592 -3.171,2.528C-3.929,2.487 -4.934,2.466 -6.423,2.497C-7.189,2.494 -7.572,2.49 -8.337,2.49C-8.316,4.226 -8.303,5.097 -8.269,6.843C-6.017,6.843 -3.957,6.823 -3.195,6.83C-2.887,6.833 -2.395,6.57 -2.279,6.57C-2.091,6.573 -1.975,6.689 -1.971,6.846L-1.971,6.921C-2.798,10.332 -2.942,10.571 -3.048,11.23C-3.082,11.305 -3.12,11.343 -3.198,11.343C-3.311,11.343 -3.464,11.268 -3.656,11.186C-4.343,11.026 -5.142,11.012 -8.187,11.018C-8.142,13.315 -8.122,14.463 -8.094,16.739C-7.336,16.735 -6.957,16.735 -6.198,16.732C-4.91,16.732 -4.264,16.732 -2.973,16.742C-1.834,16.671 -1.305,16.598 -0.584,16.332C-0.434,16.297 -0.297,16.39 -0.317,16.568C-0.396,17.248 -0.161,18.085 0,19.192" style="fill:rgb(0,37,97);fill-rule:nonzero;"/>
                </g>
                <g transform="matrix(1,0,0,1,329.565,462.419)">
                    <path d="M0,10.92C0.007,14.187 -2.525,17.61 -7.398,17.396C-11.283,17.225 -13.862,15.971 -13.862,15.971C-14.501,16.257 -14.819,16.404 -15.461,16.691C-15.612,16.729 -15.728,16.647 -15.725,16.53C-15.728,13.719 -15.749,12.297 -15.786,9.454C-15.786,9.376 -15.79,9.263 -15.79,9.185C-15.793,8.911 -15.755,8.645 -15.489,8.651C-14.918,8.668 -12.458,12.663 -8.573,12.823C-6.974,12.892 -5.03,12.721 -5.033,11.102C-5.047,7.298 -16.056,7.031 -16.111,-0.15C-16.148,-4.937 -12.786,-6.69 -8.727,-6.499C-6.772,-6.41 -5.201,-5.713 -3.899,-5.487C-3.256,-5.758 -2.932,-5.891 -2.29,-6.161C-2.136,-6.188 -2.02,-6.102 -2.02,-5.952C-2.03,-3.674 -2.03,-2.528 -2.023,-0.239C-2.023,0.26 -2.252,0.479 -2.443,0.468C-2.56,0.461 -2.672,0.376 -2.751,0.294C-3.827,-1.076 -6.089,-1.89 -7.62,-1.962C-9.574,-2.058 -11.03,-1.62 -11.02,-0.041C-10.999,3.892 -0.014,3.926 0,10.92" style="fill:rgb(0,37,97);fill-rule:nonzero;"/>
                </g>
                <g transform="matrix(1,0,0,1,352.927,477.664)">
                    <path d="M0,-16.848C-0.157,-15.795 -0.325,-14.986 -0.308,-14.231C-0.304,-14.083 -0.424,-13.974 -0.574,-14.067C-1.302,-14.368 -1.89,-14.525 -2.99,-14.678C-3.711,-14.778 -4.637,-14.869 -6.017,-14.955L-6.017,2.112C-5.757,2.642 -5.627,2.909 -5.364,3.438C-5.289,3.52 -5.364,3.591 -5.48,3.582C-8.04,3.349 -9.321,3.233 -11.88,3.021C-12.034,3.007 -12.109,2.847 -12.072,2.738C-11.689,1.955 -11.498,1.566 -11.115,0.783L-11.115,-15.403C-12.455,-15.556 -13.462,-15.631 -14.18,-15.659C-15.28,-15.697 -15.868,-15.642 -16.558,-15.464C-16.712,-15.399 -16.869,-15.526 -16.866,-15.676C-16.845,-16.424 -17.009,-17.279 -17.173,-18.344C-17.478,-20.347 -17.897,-20.316 -17.478,-20.439C-10.363,-19.912 -6.806,-19.577 0.308,-18.891C0.728,-18.697 0.297,-18.847 0,-16.848" style="fill:rgb(0,37,97);fill-rule:nonzero;"/>
                </g>
                <g transform="matrix(1,0,0,1,365.629,480.218)">
                    <path d="M0,-17.881L0,1.339C0.277,1.903 0.413,2.186 0.69,2.754C0.728,2.836 0.649,2.904 0.574,2.897C-2.002,2.62 -3.291,2.483 -5.863,2.221C-5.979,2.207 -6.092,2.043 -6.017,1.937C-5.648,1.192 -5.467,0.82 -5.098,0.075L-5.098,-19.183C-5.375,-19.746 -5.512,-20.03 -5.788,-20.594C-5.826,-20.676 -5.751,-20.785 -5.672,-20.778C-3.096,-20.512 -1.811,-20.379 0.765,-20.099C0.919,-20.085 0.998,-19.921 0.957,-19.808C0.574,-19.039 0.382,-18.653 0,-17.881" style="fill:rgb(0,37,97);fill-rule:nonzero;"/>
                </g>
                <g transform="matrix(1,0,0,1,390.928,481.669)">
                    <path d="M0,-16.421L0,2.067C0.369,2.898 0.55,3.311 0.919,4.139C0.998,4.262 0.881,4.401 0.765,4.388C-1.811,4.073 -3.096,3.92 -5.672,3.612C-5.75,3.601 -5.826,3.516 -5.788,3.444C-5.511,2.938 -5.375,2.686 -5.098,2.183L-5.098,0.957C-7.917,-3.478 -9.328,-5.692 -12.147,-10.113L-12.147,1.353C-11.874,1.924 -11.733,2.208 -11.46,2.778C-11.419,2.857 -11.498,2.926 -11.573,2.918C-14.149,2.618 -15.438,2.471 -18.014,2.183C-18.126,2.17 -18.243,2.003 -18.167,1.896C-17.798,1.155 -17.614,0.786 -17.245,0.045L-17.245,-19.209C-17.522,-19.78 -17.659,-20.064 -17.935,-20.631C-17.973,-20.713 -17.897,-20.822 -17.822,-20.812C-15.246,-20.522 -13.958,-20.374 -11.382,-20.077C-11.228,-20.06 -11.153,-19.897 -11.19,-19.783C-11.573,-19.015 -11.764,-18.632 -12.147,-17.863L-12.147,-17.593C-9.328,-13.186 -7.917,-10.978 -5.098,-6.56L-5.098,-17.802C-5.375,-18.369 -5.511,-18.655 -5.788,-19.227C-5.826,-19.305 -5.75,-19.414 -5.672,-19.404C-3.096,-19.1 -1.811,-18.942 0.765,-18.628C0.919,-18.611 0.998,-18.447 0.957,-18.335C0.574,-17.569 0.383,-17.187 0,-16.421" style="fill:rgb(0,37,97);fill-rule:nonzero;"/>
                </g>
                <g transform="matrix(1,0,0,1,410.603,475.897)">
                    <path d="M0,0.966C0,-3.099 -1.073,-6.459 -3.793,-6.801C-6.554,-7.149 -7.473,-4.234 -7.473,0.027C-7.473,4.438 -6.667,7.414 -3.947,7.756C-1.073,8.117 0,5.149 0,0.966M-12.571,-0.609C-12.571,-8.01 -9.926,-12.175 -3.909,-11.417C2.262,-10.64 5.098,-5.714 5.098,1.612C5.098,8.938 2.262,13.141 -3.909,12.365C-9.963,11.603 -12.571,6.833 -12.571,-0.609" style="fill:rgb(0,37,97);fill-rule:nonzero;"/>
                </g>
                <g transform="matrix(1,0,0,1,447.567,480.026)">
                    <path d="M0,1.617C0,-2.603 -2.338,-5.723 -6.246,-6.201L-6.246,7.798C-2.3,8.287 0,5.799 0,1.617M5.098,1.884C5.098,9.359 0.614,13.097 -8.163,12.011C-8.423,11.98 -8.553,11.963 -8.813,11.932C-9.735,11.816 -11.304,11.621 -11.341,11.618C-11.648,11.581 -11.802,11.559 -12.109,11.522C-12.264,11.502 -12.339,11.379 -12.264,11.235C-11.895,10.483 -11.71,10.104 -11.341,9.352L-11.341,-9.861C-11.618,-10.435 -11.758,-10.718 -12.034,-11.292C-12.072,-11.374 -11.993,-11.48 -11.918,-11.47C-10.675,-11.316 -10.057,-11.237 -8.813,-11.084C-8.509,-11.046 -8.354,-11.029 -8.047,-10.991C0.769,-9.902 5.098,-5.404 5.098,1.884" style="fill:rgb(0,37,97);fill-rule:nonzero;"/>
                </g>
                <g transform="matrix(1,0,0,1,473.028,473.448)">
                    <path d="M0,20.451C0.29,22.467 0.728,22.409 0.307,22.518C-5.427,21.913 -8.293,21.596 -14.026,20.936C-14.143,20.923 -14.256,20.759 -14.181,20.652C-13.812,19.911 -13.627,19.542 -13.258,18.801L-13.258,-0.532C-13.521,-1.069 -13.651,-1.335 -13.91,-1.871C-13.989,-1.957 -13.91,-2.067 -13.798,-2.053C-8.156,-1.406 -5.334,-1.093 0.307,-0.498C0.728,-0.3 0.297,-0.453 0,1.542C-0.157,2.595 -0.39,3.438 -0.308,4.115C-0.284,4.303 -0.424,4.412 -0.574,4.316C-1.303,4.009 -1.853,3.848 -2.99,3.68C-3.749,3.564 -4.753,3.449 -6.246,3.326C-7.012,3.24 -7.398,3.199 -8.163,3.114L-8.163,7.409C-5.901,7.662 -3.834,7.843 -3.065,7.929C-2.762,7.959 -2.263,7.747 -2.146,7.758C-1.955,7.778 -1.842,7.904 -1.842,8.058L-1.842,8.133C-2.721,11.417 -2.874,11.632 -2.99,12.271C-3.028,12.343 -3.065,12.377 -3.144,12.367C-3.257,12.356 -3.41,12.264 -3.602,12.169C-4.292,11.939 -5.099,11.854 -8.163,11.513L-8.163,17.15C-7.398,17.236 -7.012,17.28 -6.246,17.362C-4.944,17.506 -4.292,17.577 -2.99,17.718C-1.842,17.765 -1.303,17.745 -0.574,17.55C-0.424,17.529 -0.284,17.636 -0.308,17.809C-0.394,18.479 -0.161,19.334 0,20.451" style="fill:rgb(0,37,97);fill-rule:nonzero;"/>
                </g>
                <g transform="matrix(1,0,0,1,509.186,481.429)">
                    <path d="M0,11.169C0,14.429 -2.528,17.873 -7.436,17.494C-11.341,17.193 -13.947,15.778 -13.947,15.778C-14.594,16.031 -14.915,16.158 -15.557,16.411C-15.711,16.439 -15.827,16.35 -15.827,16.233C-15.844,13.411 -15.851,11.996 -15.864,9.174L-15.864,8.904C-15.864,8.634 -15.827,8.371 -15.557,8.395C-14.983,8.442 -12.529,12.57 -8.624,12.878C-7.012,13.004 -5.057,12.881 -5.057,11.269C-5.057,7.473 -16.097,6.775 -16.097,-0.359C-16.097,-5.115 -12.762,-6.704 -8.699,-6.383C-6.745,-6.232 -5.173,-5.498 -3.868,-5.252C-3.226,-5.512 -2.904,-5.642 -2.262,-5.905C-2.108,-5.929 -1.992,-5.847 -1.992,-5.696L-1.992,0.023C-1.992,0.523 -2.221,0.734 -2.416,0.721C-2.528,0.714 -2.642,0.628 -2.72,0.546C-3.793,-0.838 -6.055,-1.691 -7.585,-1.808C-9.543,-1.958 -10.999,-1.583 -10.999,-0.008C-10.999,3.901 0,4.189 0,11.169" style="fill:rgb(0,37,97);fill-rule:nonzero;"/>
                </g>
                <g transform="matrix(1,0,0,1,526.714,486.56)">
                    <path d="M0,4.021C-0.783,0.29 -1.172,-1.576 -1.955,-5.311C-2.737,-1.648 -3.127,0.184 -3.909,3.843C-2.345,3.918 -1.565,3.953 0,4.021M7.701,13.817C5.189,13.739 3.933,13.694 1.418,13.591C1.302,13.588 1.227,13.506 1.264,13.431C1.435,12.932 1.517,12.682 1.687,12.184C1.35,10.557 1.179,9.748 0.844,8.122C-1.395,8.029 -2.516,7.978 -4.753,7.865C-5.092,9.46 -5.259,10.256 -5.597,11.852C-5.443,12.365 -5.365,12.622 -5.211,13.137C-5.174,13.215 -5.252,13.288 -5.365,13.281C-7.866,13.154 -9.113,13.085 -11.614,12.935C-11.765,12.928 -11.84,12.768 -11.727,12.663C-11.208,11.879 -10.944,11.487 -10.425,10.705C-10.395,10.708 -10.377,10.708 -10.347,10.708C-8.737,3.084 -7.935,-0.729 -6.325,-8.366C-6.479,-8.861 -6.554,-9.11 -6.708,-9.609C-6.745,-9.688 -6.67,-9.8 -6.592,-9.797C-2.884,-9.602 -1.029,-9.517 2.682,-9.374C2.761,-9.37 2.836,-9.25 2.836,-9.175C2.668,-8.69 2.583,-8.448 2.415,-7.965C4.024,-0.185 4.828,3.703 6.437,11.473C6.468,11.476 6.485,11.476 6.516,11.476C7.052,12.307 7.318,12.724 7.855,13.554C7.931,13.67 7.855,13.821 7.701,13.817" style="fill:rgb(0,37,97);fill-rule:nonzero;"/>
                </g>
                <g transform="matrix(1,0,0,1,553.247,485.417)">
                    <path d="M0,7.394C0,6.434 -0.346,5.785 -0.844,5.327C-2.416,5.75 -4.292,5.938 -6.437,5.921L-6.437,10.711C-2.222,10.749 0,10.424 0,7.394M-6.437,1.93C-2.222,1.964 -0.728,1.452 -0.728,-0.926C-0.728,-3.342 -2.222,-3.288 -6.437,-3.325L-6.437,1.93ZM5.061,7.581C5.061,12.072 3.26,15.287 -6.437,15.202C-8.781,15.181 -9.957,15.164 -12.301,15.12C-12.417,15.12 -12.53,14.962 -12.455,14.849C-12.086,14.074 -11.901,13.688 -11.535,12.909L-11.535,-6.345C-11.809,-6.888 -11.949,-7.159 -12.226,-7.702C-12.264,-7.777 -12.188,-7.893 -12.072,-7.893C-9.816,-7.849 -8.689,-7.835 -6.437,-7.815C-0.116,-7.76 4.37,-6.642 4.37,-1.152C4.37,0.571 3.909,1.957 3.064,3.003C4.179,3.95 5.061,5.436 5.061,7.581" style="fill:rgb(0,37,97);fill-rule:nonzero;"/>
                </g>
                <g transform="matrix(1,0,0,1,577.022,488.811)">
                    <path d="M0,-0.379C0,-4.445 -1.073,-7.603 -3.793,-7.48C-6.554,-7.357 -7.473,-4.302 -7.473,-0.044C-7.473,4.37 -6.667,7.224 -3.946,7.1C-1.073,6.974 0,3.803 0,-0.379M-12.567,0.116C-12.567,-7.285 -9.927,-11.813 -3.909,-12.078C2.262,-12.352 5.098,-8.006 5.098,-0.68C5.098,6.645 2.262,11.426 -3.909,11.703C-9.964,11.973 -12.567,7.558 -12.567,0.116" style="fill:rgb(0,37,97);fill-rule:nonzero;"/>
                </g>
                <g transform="matrix(1,0,0,1,594.359,486.295)">
                    <path d="M0,0.899C1.568,0.749 6.437,-0.072 6.437,-4.141C6.437,-7.127 3.103,-6.416 0,-6.122L0,0.899ZM11.341,10.897C11.419,11.003 11.341,11.164 11.228,11.18C8.683,11.495 7.411,11.642 4.866,11.916C4.791,11.921 4.753,11.85 4.753,11.771C4.859,11.225 4.914,10.952 5.02,10.401C5.033,10.401 5.043,10.398 5.057,10.398C4.828,9.848 4.562,9.338 4.408,9.01C4.408,9.01 3.447,6.81 2.528,4.756C1.685,4.955 0.844,5.116 0,5.194L0,10.986C0.26,11.467 0.39,11.71 0.649,12.188C0.69,12.263 0.649,12.342 0.536,12.356C-2.04,12.602 -3.328,12.714 -5.904,12.923C-6.017,12.93 -6.13,12.828 -6.058,12.667C-5.672,11.837 -5.48,11.423 -5.098,10.592L-5.098,-7.859C-5.48,-8.641 -5.672,-9.031 -6.058,-9.813C-6.092,-9.925 -6.017,-10.086 -5.863,-10.096C-3.827,-10.26 -2.805,-10.349 -0.769,-10.538C4.712,-11.046 11.535,-12.031 11.535,-4.818C11.535,-1.517 9.656,0.985 7.165,2.686C7.586,3.52 8.091,4.579 8.737,5.997C9.198,7.008 9.735,8.102 10.155,9.086C10.63,9.81 10.866,10.172 11.341,10.897" style="fill:rgb(0,37,97);fill-rule:nonzero;"/>
                </g>
                <g transform="matrix(1,0,0,1,626.257,475.571)">
                    <path d="M0,16.714C0.29,18.642 0.728,18.46 0.308,18.693C-5.426,19.741 -8.293,20.206 -14.026,21.02C-14.143,21.037 -14.256,20.901 -14.181,20.774C-13.812,19.94 -13.627,19.524 -13.261,18.686C-13.258,10.953 -13.258,7.086 -13.261,-0.646C-13.521,-1.115 -13.65,-1.35 -13.91,-1.818C-13.989,-1.884 -13.91,-2.014 -13.798,-2.03C-8.156,-2.834 -5.334,-3.291 0.308,-4.323C0.728,-4.248 0.297,-4.279 0,-2.194C-0.157,-1.098 -0.394,-0.195 -0.308,0.467C-0.284,0.642 -0.424,0.795 -0.574,0.747C-1.302,0.649 -1.853,0.645 -2.99,0.792C-3.748,0.895 -4.753,1.059 -6.246,1.342C-7.012,1.468 -7.397,1.529 -8.163,1.652L-8.163,5.948C-5.901,5.589 -3.834,5.196 -3.065,5.063C-2.761,5.008 -2.262,4.652 -2.146,4.632C-1.955,4.602 -1.842,4.693 -1.842,4.848L-1.842,4.923C-2.72,8.456 -2.874,8.712 -2.99,9.385C-3.027,9.467 -3.065,9.512 -3.144,9.526C-3.257,9.542 -3.41,9.498 -3.602,9.453C-4.292,9.419 -5.098,9.567 -8.163,10.052L-8.163,15.69C-7.397,15.569 -7.012,15.508 -6.246,15.382C-4.944,15.167 -4.292,15.058 -2.99,14.832C-1.842,14.555 -1.302,14.381 -0.574,13.981C-0.424,13.916 -0.284,13.978 -0.308,14.162C-0.39,14.846 -0.161,15.642 0,16.714" style="fill:rgb(0,37,97);fill-rule:nonzero;"/>
                </g>
                <g transform="matrix(1,0,0,1,648.994,476.497)">
                    <path d="M0,6.36C0,9.62 -2.528,13.894 -7.435,15.018C-11.341,15.917 -13.947,15.257 -13.947,15.257C-14.594,15.698 -14.914,15.921 -15.557,16.358C-15.711,16.429 -15.827,16.379 -15.827,16.258C-15.841,13.44 -15.851,12.029 -15.864,9.21L-15.864,8.943C-15.864,8.673 -15.827,8.396 -15.557,8.341C-14.982,8.225 -12.529,11.646 -8.624,10.764C-7.011,10.399 -5.061,9.671 -5.061,8.058C-5.061,4.265 -16.094,6.88 -16.094,-0.255C-16.094,-5.011 -12.759,-7.56 -8.699,-8.473C-6.745,-8.917 -5.173,-8.671 -3.871,-8.831C-3.226,-9.296 -2.904,-9.529 -2.259,-9.994C-2.104,-10.069 -1.992,-10.017 -1.992,-9.867L-1.992,-4.151C-1.992,-3.652 -2.221,-3.365 -2.412,-3.32C-2.528,-3.289 -2.641,-3.34 -2.72,-3.395C-3.793,-4.441 -6.055,-4.587 -7.589,-4.24C-9.54,-3.791 -10.999,-2.978 -10.999,-1.403C-10.999,2.506 0,-0.62 0,6.36" style="fill:rgb(0,37,97);fill-rule:nonzero;"/>
                </g>
                <g transform="matrix(1,0,0,1,280.364,481.851)">
                    <path d="M0,6.583C4.485,6.583 9.049,6.693 13.704,6.934C84.204,10.548 168.431,22.354 169.276,22.474C170.901,22.703 331.978,44.767 390.899,7.374L389.46,-33.972C383.601,-30.675 376.01,-27.879 369.203,-25.474C299.708,-0.911 166.7,-19.173 165.369,-19.363C164.524,-19.483 80.443,-31.266 10.104,-34.876C-54.543,-38.156 -100.771,-17.015 -107.749,-13.607L-107.749,28.259C-103.377,26.308 -93.374,22.14 -79.109,17.976C-78.855,17.821 -78.562,17.731 -78.248,17.725C-58.774,12.109 -31.583,6.583 0,6.583M-107.705,31.993C-107.608,32.86 -107.345,33.976 -106.714,34.522C-106.574,34.643 -106.137,35.026 -105.002,34.816C-104.402,34.706 -103.564,34.525 -102.563,34.306C-96.477,32.978 -85.445,30.575 -79.893,33.632L-79.919,21.763C-94.842,26.23 -104.675,30.585 -107.705,31.993M-78.171,40.945C-79.082,40.945 -79.833,40.231 -79.876,39.317C-79.926,38.272 -80.3,37.519 -81.047,36.945C-84.952,33.962 -96.78,36.541 -101.835,37.645C-102.887,37.872 -103.761,38.062 -104.395,38.18C-106.657,38.587 -108.149,37.812 -108.973,37.088C-111.222,35.113 -111.188,31.503 -111.166,30.902L-111.166,-14.662C-111.166,-15.296 -110.815,-15.877 -110.254,-16.174C-109.771,-16.431 -60.543,-41.954 10.277,-38.286C80.774,-34.673 165.001,-22.867 165.845,-22.747C167.17,-22.563 299.364,-4.408 368.062,-28.696C375.72,-31.399 384.373,-34.603 390.131,-38.366C390.649,-38.71 391.302,-38.74 391.853,-38.457C392.401,-38.17 392.75,-37.616 392.774,-36.998L394.349,8.226C394.37,8.822 394.076,9.387 393.575,9.713C334.256,48.537 175.529,26.801 168.798,25.856C167.955,25.736 83.874,13.954 13.531,10.344C-23.054,8.499 -54.61,14.525 -76.506,20.765L-76.462,39.234C-76.459,40.161 -77.2,40.922 -78.128,40.945L-78.171,40.945Z" style="fill:rgb(184,90,29);fill-rule:nonzero;"/>
                </g>
                <g transform="matrix(1,0,0,1,191.956,481.29)">
                    <path d="M0,48.844C-4.141,48.844 -9.189,47.566 -15.099,45.017C-17.145,44.136 -19.324,43.138 -21.606,42.097C-38.454,34.393 -61.531,23.841 -77.921,39.214C-78.465,39.728 -79.276,39.818 -79.926,39.457C-80.577,39.094 -80.914,38.35 -80.761,37.619C-80.684,37.242 -72.298,0 -21.052,0C-20.108,0 -19.344,0.764 -19.344,1.708C-19.344,2.653 -20.108,3.417 -21.052,3.417C-57.763,3.417 -71.15,23.211 -75.522,32.988C-58.11,21.65 -36.411,31.57 -20.185,38.988C-17.929,40.022 -15.773,41.006 -13.745,41.88C-2.776,46.615 2.699,45.74 5.359,44.179C8.172,42.525 8.535,39.657 8.539,39.628C8.632,38.691 9.506,37.976 10.407,38.1C11.345,38.193 12.032,39.031 11.936,39.968C11.919,40.156 11.428,44.57 7.09,47.122C5.142,48.27 2.773,48.844 0,48.844" style="fill:rgb(184,90,29);fill-rule:nonzero;"/>
                </g>
                <g transform="matrix(1,0,0,1,176.99,509.212)">
                    <path d="M0,9.721C-0.47,9.721 -0.854,9.337 -0.854,8.867L-0.854,0.855C-0.854,0.384 -0.47,0 0,0C0.471,0 0.854,0.384 0.854,0.855L0.854,8.867C0.854,9.337 0.471,9.721 0,9.721" style="fill:rgb(184,90,29);fill-rule:nonzero;"/>
                </g>
                <g transform="matrix(1,0,0,1,182.783,506.699)">
                    <path d="M0,9.721C-0.471,9.721 -0.854,9.337 -0.854,8.867L-0.854,0.855C-0.854,0.384 -0.471,0 0,0C0.47,0 0.854,0.384 0.854,0.855L0.854,8.867C0.854,9.337 0.47,9.721 0,9.721" style="fill:rgb(184,90,29);fill-rule:nonzero;"/>
                </g>
                <g transform="matrix(1,0,0,1,188.949,505.205)">
                    <path d="M0,9.72C-0.47,9.72 -0.854,9.336 -0.854,8.866L-0.854,0.854C-0.854,0.384 -0.47,0 0,0C0.471,0 0.854,0.384 0.854,0.854L0.854,8.866C0.854,9.336 0.471,9.72 0,9.72" style="fill:rgb(184,90,29);fill-rule:nonzero;"/>
                </g>
                <g transform="matrix(1,0,0,1,195.112,502.579)">
                    <path d="M0,12.349C-0.47,12.349 -0.854,11.965 -0.854,11.495L-0.854,0.854C-0.854,0.383 -0.47,0 0,0C0.471,0 0.854,0.383 0.854,0.854L0.854,11.495C0.854,11.965 0.471,12.349 0,12.349" style="fill:rgb(184,90,29);fill-rule:nonzero;"/>
                </g>
                <g transform="matrix(1,0,0,1,640.19,436.187)">
                    <path d="M0,23.221C-0.941,23.221 -1.705,22.46 -1.708,21.516L-1.759,1.712C-1.762,0.784 -1.021,0.024 -0.094,0L-0.05,0C0.861,0 1.611,0.714 1.655,1.628C1.705,2.673 2.079,3.427 2.826,4.001C6.721,6.984 18.56,4.405 23.611,3.304C24.666,3.074 25.543,2.883 26.177,2.767C28.442,2.356 29.928,3.137 30.752,3.858C33.071,5.893 32.961,9.667 32.94,10.091C32.895,11.032 31.93,11.716 31.162,11.716C30.222,11.672 29.49,10.875 29.527,9.937C29.554,9.28 29.421,7.231 28.493,6.423C28.353,6.3 27.912,5.913 26.784,6.13C26.181,6.24 25.347,6.42 24.342,6.641C18.256,7.968 7.221,10.371 1.672,7.315L1.708,21.509C1.712,22.45 0.947,23.218 0.003,23.221L0,23.221Z" style="fill:rgb(184,90,29);fill-rule:nonzero;"/>
                </g>
                <g transform="matrix(1,0,0,1,673.001,427.712)">
                    <path d="M0,49.981C-0.944,49.981 -1.708,49.217 -1.708,48.273C-1.708,47.329 -0.944,46.565 0,46.565C37.021,46.565 49.418,26.427 53.229,16.774C35.78,28.462 13.892,18.456 -2.439,10.991C-4.694,9.96 -6.851,8.975 -8.876,8.101C-19.86,3.36 -25.329,4.244 -27.982,5.802C-30.795,7.46 -31.155,10.324 -31.159,10.354C-31.252,11.292 -32.083,11.999 -33.027,11.882C-33.965,11.789 -34.652,10.951 -34.556,10.013C-34.539,9.827 -34.052,5.412 -29.714,2.859C-24.862,0 -17.395,0.704 -7.521,4.964C-5.476,5.845 -3.3,6.843 -1.018,7.884C15.833,15.592 38.91,26.136 55.298,10.767C55.828,10.263 56.622,10.16 57.27,10.503C57.917,10.851 58.271,11.568 58.15,12.293C58.087,12.669 51.31,49.981 0,49.981" style="fill:rgb(184,90,29);fill-rule:nonzero;"/>
                </g>
                <g transform="matrix(1,0,0,1,665.343,440.051)">
                    <path d="M0,8.281C-0.47,8.281 -0.854,7.897 -0.854,7.427L-0.854,0.853C-0.854,0.384 -0.47,0 0,0C0.471,0 0.854,0.384 0.854,0.853L0.854,7.427C0.854,7.897 0.471,8.281 0,8.281" style="fill:rgb(184,90,29);fill-rule:nonzero;"/>
                </g>
                <g transform="matrix(1,0,0,1,659.551,442.56)">
                    <path d="M0,8.525C-0.471,8.525 -0.854,8.141 -0.854,7.671L-0.854,0.854C-0.854,0.383 -0.471,0 0,0C0.47,0 0.854,0.383 0.854,0.854L0.854,7.671C0.854,8.141 0.47,8.525 0,8.525" style="fill:rgb(184,90,29);fill-rule:nonzero;"/>
                </g>
                <g transform="matrix(1,0,0,1,653.384,444.058)">
                    <path d="M0,9.721C-0.47,9.721 -0.854,9.337 -0.854,8.867L-0.854,0.855C-0.854,0.384 -0.47,0 0,0C0.471,0 0.854,0.384 0.854,0.855L0.854,8.867C0.854,9.337 0.471,9.721 0,9.721" style="fill:rgb(184,90,29);fill-rule:nonzero;"/>
                </g>
                <g transform="matrix(1,0,0,1,647.221,444.055)">
                    <path d="M0,12.35C-0.47,12.35 -0.854,11.966 -0.854,11.496L-0.854,0.855C-0.854,0.384 -0.47,0 0,0C0.471,0 0.854,0.384 0.854,0.855L0.854,11.496C0.854,11.966 0.471,12.35 0,12.35" style="fill:rgb(184,90,29);fill-rule:nonzero;"/>
                </g>
                <g transform="matrix(1,0,0,1,728.128,276.575)">
                    <path d="M0,3.417L-357.691,3.417C-358.635,3.417 -359.399,2.653 -359.399,1.709C-359.399,0.764 -358.635,0 -357.691,0L0,0C0.944,0 1.709,0.764 1.709,1.709C1.709,2.653 0.944,3.417 0,3.417" style="fill:rgb(184,90,29);fill-rule:nonzero;"/>
                </g>
            </g>
        </g>
    </g>
</svg>
